<svg width="12.727921" height="12.728027" viewBox="0 0 12.7279 12.728" fill="none" xmlns="http://www.w3.org/2000/svg" xmlns:xlink="http://www.w3.org/1999/xlink">
	<defs/>
	<path id="Vector (Stroke)" d="M12.02 12.02C11.63 12.41 10.99 12.41 10.6 12.02L0.7 2.12C0.31 1.73 0.31 1.09 0.7 0.7C1.09 0.31 1.73 0.31 2.12 0.7L12.02 10.6C12.41 10.99 12.41 11.63 12.02 12.02Z" fill="#FFFFFF" fill-opacity="1.000000" fill-rule="evenodd"/>
	<path id="Vector (Stroke)" d="M12.02 0.7C12.41 1.09 12.41 1.73 12.02 2.12L2.12 12.02C1.73 12.41 1.09 12.41 0.7 12.02C0.31 11.63 0.31 10.99 0.7 10.6L10.6 0.7C10.99 0.31 11.63 0.31 12.02 0.7Z" fill="#FFFFFF" fill-opacity="1.000000" fill-rule="evenodd"/>
</svg>
