<svg width="24.998474" height="28.007690" viewBox="0 0 24.9985 28.0077" fill="none" xmlns="http://www.w3.org/2000/svg" xmlns:xlink="http://www.w3.org/1999/xlink">

	<defs/>
	<path id="Vector (Stroke)" d="M1.02 0.25C1.32 0.08 1.67 -0.01 2.02 0C2.37 0 2.71 0.1 3.01 0.27L23.97 12.27C24.28 12.44 24.53 12.69 24.71 12.99C24.9 13.29 24.99 13.64 24.99 14C24.99 14.36 24.9 14.7 24.71 15.01C24.53 15.31 24.28 15.56 23.97 15.72L3.01 27.73C2.71 27.9 2.37 28 2.02 28C1.67 28.01 1.32 27.92 1.02 27.75C0.71 27.57 0.45 27.32 0.27 27.02C0.09 26.72 0 26.37 6.1e-5 26.02L0 26.01L6.1e-5 1.98C0 1.63 0.09 1.28 0.27 0.98C0.45 0.67 0.71 0.42 1.02 0.25ZM22.95 14L2.01 2L2 2L2 26L2.01 25.99L22.95 14Z" fill="#FFFFFF" fill-opacity="1.000000" fill-rule="evenodd"/>
	<path id="Vector (Stroke)" d="M0.59 0.57C0.98 0.18 1.61 0.18 2 0.57L18.71 17.28C19.11 17.67 19.11 18.3 18.71 18.69C18.32 19.08 17.69 19.08 17.3 18.69L0.59 1.98C0.2 1.59 0.2 0.96 0.59 0.57Z" fill="#FFFFFF" fill-opacity="1.000000" fill-rule="evenodd"/>
	<path id="Vector (Stroke)" d="M18.71 9.3C19.11 9.7 19.11 10.33 18.71 10.72L2 27.43C1.61 27.82 0.98 27.82 0.59 27.43C0.2 27.04 0.2 26.41 0.59 26.02L17.3 9.3C17.69 8.91 18.32 8.91 18.71 9.3Z" fill="#FFFFFF" fill-opacity="1.000000" fill-rule="evenodd"/>
</svg>
