<svg width="28.000000" height="24.000366" viewBox="0 0 28 24.0004" fill="none" xmlns="http://www.w3.org/2000/svg" xmlns:xlink="http://www.w3.org/1999/xlink">

	<defs/>
	<path id="Vector (Stroke)" d="M15.81 9.15C16.29 8.87 16.9 9.02 17.18 9.5L24.86 22.49C25.14 22.96 24.98 23.57 24.5 23.86C24.03 24.14 23.42 23.98 23.13 23.5L15.46 10.52C15.18 10.04 15.34 9.43 15.81 9.15Z" fill="#FFFFFF" fill-opacity="1.000000" fill-rule="evenodd"/>
	<path id="Vector (Stroke)" d="M10.49 0.13C10.96 -0.15 11.57 0.01 11.86 0.49L14.86 5.56C15.14 6.04 14.98 6.65 14.5 6.93C14.03 7.21 13.42 7.05 13.13 6.58L10.13 1.5C9.85 1.03 10.01 0.42 10.49 0.13Z" fill="#FFFFFF" fill-opacity="1.000000" fill-rule="evenodd"/>
	<path id="Vector (Stroke)" d="M5.69 20.14C6.17 20.42 6.32 21.03 6.04 21.51L4.85 23.51C4.57 23.98 3.96 24.14 3.48 23.86C3.01 23.57 2.85 22.96 3.14 22.48L4.32 20.48C4.6 20.01 5.22 19.85 5.69 20.14Z" fill="#FFFFFF" fill-opacity="1.000000" fill-rule="evenodd"/>
	<path id="Vector (Stroke)" d="M17.5 0.13C17.98 0.42 18.14 1.03 17.86 1.5L8.41 17.5C8.13 17.98 7.51 18.14 7.04 17.86C6.56 17.58 6.4 16.96 6.68 16.49L16.13 0.49C16.41 0.01 17.03 -0.15 17.5 0.13Z" fill="#FFFFFF" fill-opacity="1.000000" fill-rule="evenodd"/>
	<path id="Vector (Stroke)" d="M19.45 17C19.45 16.44 19.89 16 20.45 16L27 16C27.55 16 28 16.44 28 17C28 17.55 27.55 18 27 18L20.45 18C19.89 18 19.45 17.55 19.45 17Z" fill="#FFFFFF" fill-opacity="1.000000" fill-rule="evenodd"/>
	<path id="Vector (Stroke)" d="M0 17C0 16.44 0.44 16 1 16L15.81 16C16.36 16 16.81 16.44 16.81 17C16.81 17.55 16.36 18 15.81 18L1 18C0.44 18 0 17.55 0 17Z" fill="#FFFFFF" fill-opacity="1.000000" fill-rule="evenodd"/>
</svg>
