<svg width="22.000000" height="22.000000" viewBox="0 0 22 22" fill="none" xmlns="http://www.w3.org/2000/svg" xmlns:xlink="http://www.w3.org/1999/xlink">
	<desc>
			Created with Pixso.
	</desc>
	<defs/>
	<path id="Vector (Stroke)" d="M0 2C0 0.89 0.89 0 2 0L8 0C9.1 0 10 0.89 10 2L10 8C10 9.1 9.1 10 8 10L2 10C0.89 10 0 9.1 0 8L0 2ZM8 2L2 2L2 8L8 8L8 2Z" fill="#FFFFFF" fill-opacity="1.000000" fill-rule="evenodd"/>
	<path id="Vector (Stroke)" d="M0 14C0 12.89 0.89 12 2 12L8 12C9.1 12 10 12.89 10 14L10 20C10 21.1 9.1 22 8 22L2 22C0.89 22 0 21.1 0 20L0 14ZM8 14L2 14L2 20L8 20L8 14Z" fill="#FFFFFF" fill-opacity="1.000000" fill-rule="evenodd"/>
	<path id="Vector (Stroke)" d="M12 2C12 0.89 12.89 0 14 0L20 0C21.1 0 22 0.89 22 2L22 8C22 9.1 21.1 10 20 10L14 10C12.89 10 12 9.1 12 8L12 2ZM20 2L14 2L14 8L20 8L20 2Z" fill="#FFFFFF" fill-opacity="1.000000" fill-rule="evenodd"/>
	<path id="Vector (Stroke)" d="M13 12C13.55 12 14 12.44 14 13L14 17C14 17.55 13.55 18 13 18C12.44 18 12 17.55 12 17L12 13C12 12.44 12.44 12 13 12Z" fill="#FFFFFF" fill-opacity="1.000000" fill-rule="evenodd"/>
	<path id="Vector (Stroke)" d="M17 12C17.55 12 18 12.44 18 13L18 21C18 21.55 17.55 22 17 22L13 22C12.44 22 12 21.55 12 21C12 20.44 12.44 20 13 20L16 20L16 13C16 12.44 16.44 12 17 12Z" fill="#FFFFFF" fill-opacity="1.000000" fill-rule="evenodd"/>
	<path id="Vector (Stroke)" d="M16 15C16 14.44 16.44 14 17 14L21 14C21.55 14 22 14.44 22 15C22 15.55 21.55 16 21 16L17 16C16.44 16 16 15.55 16 15Z" fill="#FFFFFF" fill-opacity="1.000000" fill-rule="evenodd"/>
	<path id="Vector (Stroke)" d="M21 18C21.55 18 22 18.44 22 19L22 21C22 21.55 21.55 22 21 22C20.44 22 20 21.55 20 21L20 19C20 18.44 20.44 18 21 18Z" fill="#FFFFFF" fill-opacity="1.000000" fill-rule="evenodd"/>
</svg>
