<svg width="18.000000" height="18.000000" viewBox="0 0 18 18" fill="none" xmlns="http://www.w3.org/2000/svg" xmlns:xlink="http://www.w3.org/1999/xlink">
	<desc>
			Created with Pixso.
	</desc>
	<defs/>
	<rect id="Component 1" rx="0.000000" width="17.000000" height="17.000000" transform="translate(0.500000 0.500000)" fill="#FFFFFF" fill-opacity="0"/>
	<path id="Vector (Stroke)" d="M16.71 3.53C16.92 3.75 16.92 4.11 16.71 4.33L9.96 11.08C9.74 11.3 9.38 11.3 9.16 11.08L6.75 8.67L2.08 13.33C1.86 13.55 1.5 13.55 1.28 13.33C1.07 13.11 1.07 12.75 1.28 12.53L6.35 7.47C6.57 7.25 6.92 7.25 7.14 7.47L9.56 9.89L15.91 3.53C16.13 3.32 16.49 3.32 16.71 3.53Z" fill="#06B470" fill-opacity="1.000000" fill-rule="evenodd"/>
	<path id="Vector (Stroke)" d="M11.25 3.93C11.25 3.62 11.5 3.37 11.81 3.37L16.31 3.37C16.62 3.37 16.87 3.62 16.87 3.93L16.87 8.43C16.87 8.74 16.62 9 16.31 9C16 9 15.75 8.74 15.75 8.43L15.75 4.5L11.81 4.5C11.5 4.5 11.25 4.24 11.25 3.93Z" fill="#06B470" fill-opacity="1.000000" fill-rule="evenodd"/>
</svg>
