<svg width="18.000000" height="18.000000" viewBox="0 0 18 18" fill="none" xmlns="http://www.w3.org/2000/svg" xmlns:xlink="http://www.w3.org/1999/xlink">
	<desc>
			Created with Pixso.
	</desc>
	<defs/>
	<rect id="Component 1" rx="0.000000" width="17.000000" height="17.000000" transform="translate(0.500000 0.500000)" fill="#FFFFFF" fill-opacity="0"/>
	<path id="Vector (Stroke)" d="M1.28 4.66C1.5 4.44 1.86 4.44 2.08 4.66L6.75 9.32L9.16 6.91C9.38 6.69 9.74 6.69 9.96 6.91L16.71 13.66C16.92 13.88 16.92 14.24 16.71 14.46C16.49 14.67 16.13 14.67 15.91 14.46L9.56 8.1L7.14 10.52C6.92 10.74 6.57 10.74 6.35 10.52L1.28 5.46C1.07 5.24 1.07 4.88 1.28 4.66Z" fill="#F74E2C" fill-opacity="1.000000" fill-rule="evenodd"/>
	<path id="Vector (Stroke)" d="M16.31 9C16.62 9 16.87 9.25 16.87 9.56L16.87 14.06C16.87 14.37 16.62 14.62 16.31 14.62L11.81 14.62C11.5 14.62 11.25 14.37 11.25 14.06C11.25 13.75 11.5 13.5 11.81 13.5L15.75 13.5L15.75 9.56C15.75 9.25 16 9 16.31 9Z" fill="#F74E2C" fill-opacity="1.000000" fill-rule="evenodd"/>
</svg>
