<svg width="317.007141" height="101.793701" viewBox="0 0 317.007 101.794" fill="none" xmlns="http://www.w3.org/2000/svg" xmlns:xlink="http://www.w3.org/1999/xlink">
	<desc>
			Created with Pixso.
	</desc>
	<defs>
		<linearGradient x1="158.503860" y1="1.793701" x2="158.003510" y2="101.793701" id="paint_linear_59_195245_0" gradientUnits="userSpaceOnUse">
			<stop stop-color="#E55250" stop-opacity="0.301961"/>
			<stop offset="0.866922" stop-color="#E55250" stop-opacity="0.000000"/>
		</linearGradient>
	</defs>
	<path id="Vector 3" d="M1 47.51L20.42 32.76L41.99 47.51L59.25 29.07L72.2 77.74L84.42 50.46L94.49 65.2L116.07 10.64L123.98 32.76L146.27 1.79L169.29 38.66L209.56 1.79L234.01 47.51L248.4 29.07L265.66 81.43L275.73 57.83L282.92 77.74L316 18.01L316 101.79L1 101.79L1 47.51Z" fill="url(#paint_linear_59_195245_0)" fill-opacity="1.000000" fill-rule="evenodd"/>
	<path id="Vector 4" d="M1 47.51L20.42 32.76L41.99 47.51L59.25 29.07L72.2 77.74L84.42 50.46L94.49 65.2L116.07 10.64L123.98 32.76L146.27 1.79L169.29 38.66L209.56 1.79L234.01 47.51L248.4 29.07L265.66 81.43L275.73 57.83L282.92 77.74L316 18.01" stroke="#F74E2C" stroke-opacity="1.000000" stroke-width="2.000000" stroke-linecap="round"/>
</svg>
