<svg width="10.125000" height="10.125000" viewBox="0 0 10.125 10.125" fill="none" xmlns="http://www.w3.org/2000/svg" xmlns:xlink="http://www.w3.org/1999/xlink">
	<defs/>
	<path id="Vector (Stroke)" d="M9.96 0.16C10.17 0.38 10.17 0.74 9.96 0.96L0.96 9.96C0.74 10.17 0.38 10.17 0.16 9.96C-0.06 9.74 -0.06 9.38 0.16 9.16L9.16 0.16C9.38 -0.06 9.74 -0.06 9.96 0.16Z" fill="#FFFFFF" fill-opacity="1.000000" fill-rule="evenodd"/>
	<path id="Vector (Stroke)" d="M1.68 0.56C1.68 0.25 1.93 0 2.25 0L9.56 0C9.87 0 10.12 0.25 10.12 0.56L10.12 7.87C10.12 8.18 9.87 8.43 9.56 8.43C9.25 8.43 9 8.18 9 7.87L9 1.12L2.25 1.12C1.93 1.12 1.68 0.87 1.68 0.56Z" fill="#FFFFFF" fill-opacity="1.000000" fill-rule="evenodd"/>
</svg>
