<svg width="23.683777" height="21.454102" viewBox="0 0 23.6838 21.4541" fill="none" xmlns="http://www.w3.org/2000/svg" xmlns:xlink="http://www.w3.org/1999/xlink">
	<desc>
			Created with Pixso.
	</desc>
	<defs/>
	<path id="Vector (Stroke)" d="M21.3 0.11C21.59 0 21.91 -0.03 22.23 0.02C22.54 0.07 22.83 0.21 23.07 0.42C23.31 0.62 23.49 0.89 23.59 1.19C23.69 1.49 23.71 1.82 23.64 2.13L23.64 2.13L23.64 2.13L19.52 20.09L19.52 20.09C19.46 20.39 19.31 20.66 19.11 20.88C18.9 21.11 18.64 21.27 18.35 21.37C18.06 21.46 17.75 21.47 17.46 21.41C17.16 21.35 16.89 21.21 16.66 21.01C16.66 21.01 16.66 21.01 16.66 21.01L7 12.51L1.4 11.39L1.4 11.39C-0.28 11.04 -0.54 8.69 1.1 8.04L1.42 8.86L1.1 8.04L1.1 8.04L21.29 0.11L21.3 0.11ZM1.75 9.67C1.75 9.67 1.75 9.67 1.75 9.67C1.75 9.67 1.75 9.67 1.75 9.67C1.75 9.67 1.75 9.68 1.75 9.68L7.58 10.84C7.73 10.87 7.87 10.94 7.98 11.05L17.82 19.7L17.82 19.7L21.93 1.75L1.75 9.67ZM1.74 9.67C1.74 9.67 1.74 9.67 1.74 9.67L1.74 9.67Z" fill="#FFFFFF" fill-opacity="1.000000" fill-rule="evenodd"/>
	<path id="Vector (Stroke)" d="M23 0.44C23.28 0.83 23.19 1.38 22.8 1.66L7.92 12.41C7.53 12.7 6.98 12.61 6.7 12.22C6.41 11.82 6.5 11.28 6.89 10.99L21.78 0.24C22.17 -0.04 22.72 0.05 23 0.44Z" fill="#FFFFFF" fill-opacity="1.000000" fill-rule="evenodd"/>
	<path id="Vector (Stroke)" d="M7.4 10.83C7.89 10.83 8.28 11.22 8.28 11.7L8.28 18.82L8.28 18.82L11.7 15.4C12.04 15.06 12.59 15.06 12.93 15.4C13.28 15.75 13.28 16.3 12.93 16.64L9.52 20.05C9.28 20.3 8.97 20.47 8.63 20.54C8.29 20.61 7.94 20.57 7.62 20.44C7.3 20.31 7.02 20.09 6.83 19.8C6.63 19.51 6.53 19.17 6.53 18.82L6.53 11.7C6.53 11.22 6.92 10.83 7.4 10.83Z" fill="#FFFFFF" fill-opacity="1.000000" fill-rule="evenodd"/>
</svg>
