<svg width="24.500000" height="19.162598" viewBox="0 0 24.5 19.1626" fill="none" xmlns="http://www.w3.org/2000/svg" xmlns:xlink="http://www.w3.org/1999/xlink">
	<desc>
			Created with Pixso.
	</desc>
	<defs/>
	<path id="Vector (Stroke)" d="M10.08 5.3C10.37 5.15 10.71 5.17 10.98 5.35L16.23 8.85C16.47 9.01 16.62 9.28 16.62 9.58C16.62 9.87 16.47 10.14 16.23 10.3L10.98 13.8C10.71 13.98 10.37 14 10.08 13.85C9.8 13.7 9.62 13.4 9.62 13.08L9.62 6.08C9.62 5.75 9.8 5.46 10.08 5.3ZM11.37 7.71L11.37 11.44L14.17 9.58L11.37 7.71Z" fill="#FFFFFF" fill-opacity="1.000000" fill-rule="evenodd"/>
	<path id="Vector (Stroke)" d="M12.24 0L12.23 0L12.17 0C12.13 0 12.06 0 11.97 0C11.79 0 11.53 0 11.21 0.01C10.57 0.03 9.69 0.07 8.68 0.16C6.69 0.32 4.15 0.67 2.2 1.42L2.19 1.42C1.8 1.58 1.46 1.82 1.19 2.13C0.91 2.44 0.72 2.81 0.61 3.21L0.61 3.21C0.34 4.28 0 6.26 0 9.58C0 12.9 0.34 14.87 0.61 15.94L0.61 15.94C0.72 16.34 0.91 16.71 1.19 17.02C1.46 17.33 1.8 17.57 2.19 17.73L2.2 17.73C4.15 18.48 6.69 18.83 8.68 19C9.69 19.08 10.57 19.12 11.21 19.14C11.53 19.15 11.79 19.15 11.97 19.16C12.06 19.16 12.13 19.16 12.17 19.16L12.23 19.16L12.24 19.16L12.25 19.16L12.26 19.16L12.32 19.16C12.36 19.16 12.43 19.16 12.52 19.16C12.7 19.15 12.96 19.15 13.28 19.14C13.92 19.12 14.8 19.08 15.81 19C17.8 18.83 20.34 18.48 22.29 17.73L22.3 17.73C22.69 17.57 23.03 17.33 23.3 17.02C23.58 16.71 23.77 16.34 23.88 15.94L23.88 15.94C24.15 14.87 24.5 12.9 24.5 9.58C24.5 6.26 24.15 4.28 23.88 3.21L23.88 3.21C23.77 2.81 23.58 2.44 23.3 2.13C23.03 1.82 22.69 1.58 22.3 1.42L22.29 1.42C20.34 0.67 17.8 0.32 15.81 0.16C14.8 0.07 13.92 0.03 13.28 0.01C12.96 0 12.7 0 12.52 0C12.43 0 12.36 0 12.32 0L12.26 0L12.25 0L12.24 0ZM12.24 17.41L12.25 17.41L12.25 17.41L12.26 17.41L12.31 17.41C12.36 17.41 12.42 17.41 12.5 17.41C12.67 17.4 12.92 17.4 13.22 17.39C13.84 17.37 14.7 17.33 15.66 17.25C17.62 17.09 19.95 16.75 21.66 16.1C21.79 16.05 21.9 15.97 21.99 15.87C22.08 15.76 22.15 15.64 22.18 15.5C22.41 14.6 22.75 12.77 22.75 9.58C22.75 6.38 22.41 4.55 22.18 3.65C22.15 3.51 22.08 3.39 21.99 3.29C21.9 3.18 21.79 3.1 21.66 3.05C19.95 2.4 17.62 2.07 15.66 1.9C14.7 1.82 13.84 1.78 13.22 1.76C12.92 1.75 12.67 1.75 12.5 1.75C12.42 1.75 12.36 1.75 12.31 1.75L12.26 1.75L12.25 1.75L12.25 1.75L12.24 1.75L12.24 1.75L12.23 1.75L12.18 1.75C12.13 1.75 12.07 1.75 11.99 1.75C11.82 1.75 11.57 1.75 11.27 1.76C10.65 1.78 9.79 1.82 8.83 1.9C6.87 2.07 4.54 2.4 2.83 3.05C2.7 3.1 2.59 3.18 2.5 3.29C2.41 3.39 2.34 3.51 2.31 3.65C2.08 4.55 1.75 6.38 1.75 9.58C1.75 12.77 2.08 14.6 2.31 15.5C2.34 15.64 2.41 15.76 2.5 15.87C2.59 15.97 2.7 16.05 2.83 16.1C4.54 16.75 6.87 17.09 8.83 17.25C9.79 17.33 10.65 17.37 11.27 17.39C11.57 17.4 11.82 17.4 11.99 17.41C12.07 17.41 12.13 17.41 12.18 17.41L12.23 17.41L12.24 17.41L12.24 17.41Z" fill="#FFFFFF" fill-opacity="1.000000" fill-rule="evenodd"/>
</svg>
