<svg width="192.809143" height="18.875732" viewBox="0 0 192.809 18.8757" fill="none" xmlns="http://www.w3.org/2000/svg" xmlns:xlink="http://www.w3.org/1999/xlink">
	<desc>
			Created with Pixso.
	</desc>
	<defs/>
	<path id="Vector" d="M0.45 6C0.52 5.84 0.6 5.67 0.71 5.53C0.56 5.67 0.49 5.84 0.45 6ZM9.76 1.24C10.1 1.22 10.4 1.22 10.74 1.22C10.81 1.22 10.89 1.22 10.96 1.22C10.55 1.2 10.17 1.2 9.76 1.24ZM17.83 2.87C18.09 3.04 18.39 3.18 18.62 3.36C18.39 3.18 18.13 3.01 17.83 2.87Z" fill="#1B70F1" fill-opacity="1.000000" fill-rule="nonzero"/>
	<path id="Vector" d="M16.09 9.87L20.05 11.31C18.13 13.38 14.58 14.68 10.74 14.68C4.82 14.68 6.1e-5 11.64 6.1e-5 7.96C6.1e-5 7.3 0.15 6.64 0.45 6.03C0.52 5.86 0.6 5.7 0.71 5.56C0.98 5.27 1.35 5.01 1.92 4.87C2.18 4.8 2.45 4.76 2.71 4.71C2.94 3.51 4.22 2.96 5.91 2.71C6.18 2.66 6.48 2.56 6.67 2.42C7.61 1.79 8.66 1.39 9.76 1.27C10.1 1.24 10.4 1.24 10.74 1.24C10.81 1.24 10.89 1.24 10.96 1.24C11.98 1.32 13.04 1.6 14.02 2.14C14.24 2.26 14.62 2.33 14.92 2.33C16.09 2.35 17.07 2.54 17.83 2.89C18.09 3.06 18.39 3.2 18.62 3.39C19.14 3.77 19.63 4.17 20.05 4.61L19.6 4.78L17.33 5.6C16.88 5.58 16.43 5.51 15.98 5.49C15.79 5.46 15.6 5.46 15.41 5.49C15.19 5.32 14.96 5.18 14.7 5.04C15.07 4.99 15.53 4.99 15.98 5.01C16.66 5.06 16.96 4.85 16.66 4.45C16.51 4.21 16.24 4 16.02 3.74C16.88 3.91 16.96 3.93 17.6 4.71C17.83 4.97 18.13 5.18 18.54 5.01C18.81 4.92 18.99 4.59 18.92 4.38C18.69 3.55 16.69 2.68 15.37 2.8C15.19 2.82 14.88 3.01 14.88 3.13C14.88 4.24 14.88 4.24 13.34 4.45L13.3 4.47C13.08 4.4 12.81 4.33 12.55 4.28C12.36 3.46 11.91 3.32 10.96 2.61C11.34 2.68 11.72 2.75 12.02 2.89C12.4 3.08 12.7 3.37 13.08 3.58C13.3 3.69 13.68 3.72 13.98 3.79C14.06 3.58 14.24 3.37 14.17 3.18C13.79 2.38 12.81 1.93 11.53 1.76C10.25 1.6 9.04 1.69 8.02 2.28C7.87 2.35 7.8 2.47 7.84 2.45C8.66 2.78 9.57 3.01 10.21 3.44C10.51 3.65 10.74 3.86 10.89 4.12C10.85 4.12 10.78 4.12 10.7 4.12C10.47 4.12 10.21 4.12 9.98 4.14C9.72 3.77 9.27 3.46 8.7 3.27C7.38 2.87 5.2 3.06 4.1 3.67C3.5 4 3.24 4.4 3.5 4.87C3.58 5.01 3.95 5.18 4.22 5.2C5.01 5.27 5.46 4.94 5.91 4.59C5.99 4.54 5.99 4.45 6.03 4.33L4.67 4.33C5.91 3.65 7.16 3.77 8.25 4.45C8.02 4.52 7.8 4.57 7.61 4.66C7.23 4.47 6.93 4.45 6.59 4.78C6.37 4.99 6.1 5.18 5.8 5.37C4.97 5.89 3.92 5.89 3.01 5.39C2.86 5.3 2.45 5.25 2.33 5.32C1.99 5.46 1.54 5.7 1.54 5.89C1.54 6.15 1.88 6.45 2.22 6.62C2.97 6.95 3.92 6.9 4.71 6.64C4.82 6.62 4.9 6.57 5.01 6.55C4.74 6.92 4.59 7.32 4.56 7.75C4.56 7.84 4.56 7.94 4.56 8.03C4.56 10.18 7.35 11.9 10.74 11.9C13.04 11.8 15.04 11.02 16.09 9.87Z" fill="#1B70F1" fill-opacity="1.000000" fill-rule="nonzero"/>
	<path id="Vector" d="M32.9 4.92L31.62 8.15C31.39 8.08 31.13 8.01 30.75 7.94C30.37 7.89 30 7.87 29.62 7.87C29.2 7.87 28.79 7.91 28.41 8.01C28.04 8.1 27.73 8.24 27.47 8.41C27.21 8.57 27.02 8.79 26.87 9.02C26.72 9.26 26.64 9.52 26.64 9.8L26.64 14.68L21.93 14.68L21.93 4.94L26.38 4.94L26.49 6.43C26.6 6.31 26.75 6.19 26.87 6.08C27.39 5.65 28.04 5.32 28.75 5.09C29.47 4.85 30.26 4.73 31.05 4.73C31.39 4.73 31.73 4.76 32.03 4.78C32.37 4.83 32.63 4.87 32.9 4.92Z" fill="#1B70F1" fill-opacity="1.000000" fill-rule="nonzero"/>
	<path id="Vector" d="M51.18 4.94L44.55 14.65L41.87 18.87L37.24 18.87L40.29 14.39L33.35 4.94L38.63 4.94L41.91 9.82C42.1 10.06 42.25 10.32 42.4 10.6C42.48 10.69 42.51 10.79 42.55 10.88C42.7 10.62 42.81 10.36 43 10.06L45.87 4.92L51.18 4.92L51.18 4.94Z" fill="#1B70F1" fill-opacity="1.000000" fill-rule="nonzero"/>
	<path id="Vector" d="M68.75 7.18C68.15 6.43 67.32 5.84 66.3 5.42C65.28 4.99 64.07 4.76 62.76 4.76C61.85 4.76 61.02 4.85 60.19 5.06C59.36 5.27 58.72 5.53 58.19 5.86C58.12 5.91 58.04 5.96 58.01 6L57.93 4.94L53.48 4.94L53.48 18.68L58.19 18.68L58.19 13.66C58.76 14.02 59.4 14.3 60.23 14.49C61.02 14.7 61.85 14.79 62.76 14.79C64.11 14.79 65.32 14.58 66.34 14.16C67.39 13.73 68.18 13.14 68.79 12.37C69.39 11.61 69.69 10.74 69.69 9.75C69.62 8.81 69.31 7.94 68.75 7.18ZM64.6 11.16C64.3 11.54 63.89 11.82 63.36 12.06C62.83 12.27 62.23 12.37 61.51 12.37C60.8 12.37 60.15 12.27 59.63 12.06C59.1 11.85 58.68 11.57 58.38 11.16C58.08 10.76 57.93 10.34 57.93 9.8C57.93 9.28 58.08 8.83 58.38 8.45C58.68 8.08 59.1 7.77 59.63 7.56C60.15 7.35 60.8 7.25 61.51 7.25C62.23 7.25 62.87 7.35 63.36 7.56C63.89 7.77 64.26 8.08 64.56 8.45C64.87 8.83 65.02 9.28 65.02 9.8C65.05 10.32 64.9 10.76 64.6 11.16Z" fill="#1B70F1" fill-opacity="1.000000" fill-rule="nonzero"/>
	<path id="Vector" d="M81.72 4.94L81.72 5.2C81.41 5.44 81.15 5.67 80.92 5.93C80.43 6.43 80.06 6.95 79.79 7.51L78.7 7.51L78.7 14.68L74.03 14.68L74.03 7.51L71.27 7.51L71.27 4.94L74.03 4.94L74.03 2.49L78.7 2.49L78.7 4.94L81.72 4.94Z" fill="#1B70F1" fill-opacity="1.000000" fill-rule="nonzero"/>
	<path id="Vector" d="M91.55 14.84C89.93 14.84 88.5 14.63 87.22 14.18C85.97 13.73 84.96 13.14 84.24 12.39C83.52 11.64 83.15 10.76 83.15 9.8C83.15 8.83 83.52 7.96 84.24 7.21C84.96 6.45 85.97 5.86 87.22 5.42C88.46 4.97 89.93 4.76 91.55 4.76C93.17 4.76 94.61 4.97 95.89 5.42C97.13 5.86 98.15 6.45 98.86 7.21C99.58 7.96 99.96 8.83 99.96 9.8C99.96 10.76 99.58 11.64 98.86 12.39C98.15 13.14 97.17 13.73 95.89 14.18C94.61 14.63 93.17 14.84 91.55 14.84ZM91.55 12.32C92.27 12.32 92.87 12.2 93.44 11.99C93.96 11.78 94.42 11.47 94.72 11.09C95.02 10.72 95.17 10.29 95.17 9.8C95.21 9.3 95.06 8.88 94.72 8.48C94.42 8.1 93.96 7.8 93.44 7.58C92.91 7.37 92.27 7.25 91.55 7.25C90.84 7.25 90.23 7.37 89.67 7.58C89.1 7.8 88.69 8.1 88.35 8.48C88.05 8.86 87.9 9.3 87.9 9.8C87.86 10.29 88.01 10.72 88.35 11.09C88.65 11.47 89.1 11.78 89.67 11.99C90.23 12.2 90.84 12.32 91.55 12.32Z" fill="#1B70F1" fill-opacity="1.000000" fill-rule="nonzero"/>
	<path id="Vector" d="M117.27 9.28C116.89 8.83 116.36 8.45 115.72 8.15C115.27 7.94 114.78 7.8 114.25 7.68C114.93 7.49 115.49 7.21 115.91 6.85C116.47 6.36 116.78 5.75 116.78 5.01C116.78 4.35 116.55 3.79 116.02 3.32C115.53 2.85 114.78 2.49 113.8 2.23C112.82 1.97 111.65 1.86 110.22 1.86L101.17 1.86L101.17 5.04C101.55 5.32 101.89 5.63 102.19 5.96C103.28 7.09 103.85 8.38 103.85 9.8C103.85 11.21 103.32 12.51 102.23 13.64C101.92 13.97 101.58 14.28 101.17 14.56L101.17 14.65L110.52 14.65C111.57 14.65 112.59 14.58 113.46 14.42C114.36 14.25 115.12 14.02 115.8 13.69C116.47 13.36 116.96 12.96 117.3 12.46C117.64 11.99 117.83 11.42 117.83 10.76C117.83 10.22 117.64 9.73 117.27 9.28ZM105.84 4.45L109.31 4.45C110.18 4.45 110.82 4.57 111.23 4.8C111.65 5.04 111.88 5.34 111.88 5.72C111.88 5.98 111.8 6.22 111.61 6.4C111.42 6.59 111.16 6.73 110.78 6.85C110.41 6.95 109.99 6.99 109.46 6.99L105.81 6.99L105.81 4.45L105.84 4.45ZM112.59 11.42C112.37 11.64 112.1 11.8 111.69 11.9C111.31 12.01 110.82 12.06 110.29 12.06L105.81 12.06L105.81 9.3L110.14 9.3C110.71 9.3 111.2 9.35 111.61 9.44C112.03 9.54 112.33 9.7 112.55 9.89C112.78 10.08 112.89 10.32 112.89 10.6C112.93 10.95 112.82 11.21 112.59 11.42Z" fill="#FFFFFF" fill-opacity="1.000000" fill-rule="nonzero"/>
	<path id="Vector" d="M132.15 4.92L130.87 8.15C130.64 8.08 130.38 8.01 130 7.94C129.63 7.87 129.29 7.87 128.87 7.87C128.46 7.87 128.04 7.91 127.67 8.01C127.29 8.1 126.99 8.24 126.72 8.41C126.46 8.57 126.27 8.78 126.12 9.02C125.97 9.26 125.9 9.52 125.9 9.8L125.9 14.68L121.18 14.68L121.18 4.94L125.63 4.94L125.74 6.43C125.86 6.31 125.97 6.19 126.12 6.1C126.65 5.67 127.29 5.34 128.01 5.11C128.72 4.87 129.51 4.76 130.31 4.76C130.64 4.76 130.98 4.78 131.28 4.8C131.59 4.83 131.89 4.87 132.15 4.92Z" fill="#FFFFFF" fill-opacity="1.000000" fill-rule="nonzero"/>
	<path id="Vector" d="M144.37 4.94L144.37 6.12C144.06 5.89 143.76 5.67 143.39 5.51C142.93 5.27 142.37 5.09 141.77 4.94C141.16 4.8 140.48 4.73 139.73 4.73C138.37 4.73 137.17 4.94 136.11 5.37C135.06 5.79 134.23 6.4 133.62 7.16C133.02 7.91 132.72 8.79 132.72 9.77C132.72 10.74 133.02 11.61 133.62 12.37C134.23 13.12 135.06 13.73 136.07 14.16C137.09 14.58 138.26 14.79 139.58 14.79C140.3 14.79 140.94 14.72 141.58 14.61C142.22 14.46 142.78 14.3 143.27 14.06C143.65 13.9 143.99 13.69 144.25 13.5L144.25 14.65L149 14.65L149 4.94L144.37 4.94ZM143.99 11.16C143.69 11.54 143.27 11.85 142.75 12.06C142.22 12.27 141.58 12.37 140.86 12.37C140.14 12.37 139.54 12.27 139.05 12.06C138.52 11.85 138.11 11.57 137.84 11.16C137.54 10.79 137.39 10.34 137.39 9.8C137.39 9.28 137.54 8.83 137.84 8.43C138.15 8.05 138.52 7.75 139.05 7.54C139.54 7.32 140.18 7.23 140.86 7.23C141.58 7.23 142.22 7.32 142.75 7.54C143.27 7.75 143.69 8.05 143.99 8.43C144.29 8.81 144.44 9.28 144.44 9.8C144.44 10.32 144.29 10.76 143.99 11.16Z" fill="#FFFFFF" fill-opacity="1.000000" fill-rule="nonzero"/>
	<path id="Vector" d="M155.75 3.03C154.88 3.03 154.17 2.89 153.68 2.63C153.19 2.38 152.92 2 152.92 1.5C152.92 1.06 153.19 0.7 153.68 0.42C154.17 0.14 154.88 0 155.71 0C156.58 0 157.26 0.14 157.75 0.4C158.24 0.65 158.46 1.03 158.46 1.5C158.46 1.95 158.2 2.33 157.71 2.61C157.22 2.89 156.62 3.03 155.75 3.03ZM153.41 14.68L153.41 4.94L158.12 4.94L158.12 14.65L153.41 14.65L153.41 14.68Z" fill="#FFFFFF" fill-opacity="1.000000" fill-rule="nonzero"/>
	<path id="Vector" d="M177.16 8.69L177.16 14.65L172.45 14.65L172.45 8.95C172.45 8.55 172.38 8.24 172.19 7.98C172 7.72 171.74 7.54 171.4 7.42C171.02 7.3 170.6 7.23 170.08 7.25C169.66 7.25 169.29 7.3 168.95 7.37C168.61 7.44 168.31 7.56 168.04 7.72C167.78 7.87 167.59 8.05 167.44 8.24C167.29 8.43 167.21 8.64 167.21 8.88L167.21 14.7L162.54 14.7L162.54 4.94L166.99 4.94L167.06 6.15C167.14 6.08 167.25 6 167.33 5.93C167.89 5.58 168.57 5.27 169.32 5.06C170.11 4.85 170.91 4.73 171.77 4.73C172.94 4.73 173.92 4.87 174.71 5.18C175.5 5.49 176.11 5.93 176.52 6.52C176.98 7.11 177.16 7.84 177.16 8.69Z" fill="#FFFFFF" fill-opacity="1.000000" fill-rule="nonzero"/>
	<path id="Vector" d="M186.32 14.84C184.81 14.84 183.46 14.7 182.29 14.39C181.12 14.09 180.21 13.69 179.54 13.17L182.36 11.64C182.97 12.01 183.64 12.3 184.4 12.46C185.15 12.65 185.87 12.72 186.55 12.72C186.81 12.72 187.07 12.7 187.26 12.67C187.49 12.63 187.64 12.58 187.79 12.51C187.94 12.44 188.06 12.37 188.13 12.27C188.21 12.18 188.24 12.08 188.24 11.94C188.24 11.71 188.06 11.52 187.72 11.38C187.53 11.31 187.26 11.24 186.85 11.16C186.43 11.07 185.91 10.98 185.27 10.88C184.36 10.74 183.57 10.55 182.89 10.36C182.21 10.15 181.65 9.92 181.23 9.66C180.86 9.4 180.55 9.11 180.33 8.81C180.1 8.5 179.99 8.15 179.99 7.75C179.99 7.3 180.18 6.88 180.52 6.52C180.86 6.15 181.31 5.84 181.87 5.58C182.44 5.32 183.12 5.11 183.87 4.97C184.62 4.83 185.42 4.76 186.21 4.76C187.07 4.76 187.9 4.83 188.66 4.94C189.45 5.06 190.17 5.23 190.84 5.46C191.52 5.67 192.13 5.93 192.65 6.24L190.2 7.96C189.86 7.75 189.45 7.56 189.04 7.39C188.58 7.23 188.13 7.09 187.68 6.99C187.23 6.9 186.77 6.85 186.4 6.85C186.09 6.85 185.83 6.88 185.6 6.9C185.38 6.92 185.19 6.97 185.04 7.04C184.89 7.11 184.78 7.18 184.7 7.28C184.62 7.37 184.59 7.47 184.59 7.61C184.59 7.72 184.62 7.84 184.74 7.96C184.85 8.08 185 8.17 185.19 8.24C185.38 8.31 185.68 8.41 186.13 8.48C186.55 8.57 187.15 8.69 187.9 8.81C188.81 8.97 189.6 9.14 190.28 9.35C190.96 9.54 191.49 9.77 191.86 10.06C192.16 10.27 192.39 10.51 192.58 10.79C192.73 11.07 192.8 11.35 192.8 11.68C192.8 12.3 192.54 12.86 191.98 13.33C191.41 13.8 190.66 14.2 189.68 14.46C188.7 14.72 187.57 14.84 186.32 14.84Z" fill="#FFFFFF" fill-opacity="1.000000" fill-rule="nonzero"/>
</svg>
