<svg width="26.237122" height="19.921143" viewBox="0 0 26.2371 19.9211" fill="none" xmlns="http://www.w3.org/2000/svg" xmlns:xlink="http://www.w3.org/1999/xlink">
	<desc>
			Created with Pixso.
	</desc>
	<defs/>
	<path id="Vector" d="M9.61 13.08C10.34 13.08 10.93 12.49 10.93 11.76C10.93 11.04 10.34 10.45 9.61 10.45C8.89 10.45 8.3 11.04 8.3 11.76C8.3 12.49 8.89 13.08 9.61 13.08Z" fill="#FFFFFF" fill-opacity="1.000000" fill-rule="nonzero"/>
	<path id="Vector" d="M16.61 13.08C17.34 13.08 17.93 12.49 17.93 11.76C17.93 11.04 17.34 10.45 16.61 10.45C15.89 10.45 15.3 11.04 15.3 11.76C15.3 12.49 15.89 13.08 16.61 13.08Z" fill="#FFFFFF" fill-opacity="1.000000" fill-rule="nonzero"/>
	<path id="Vector (Stroke)" d="M13.11 4.76C11.21 4.75 9.32 5.03 7.51 5.6C7.05 5.74 6.56 5.49 6.42 5.02C6.27 4.56 6.53 4.07 6.99 3.93C8.97 3.31 11.04 3 13.11 3.01C15.19 3 17.26 3.31 19.24 3.93C19.7 4.07 19.96 4.56 19.81 5.02C19.67 5.49 19.18 5.74 18.71 5.6C16.9 5.03 15.02 4.75 13.12 4.76L13.11 4.76Z" fill="#FFFFFF" fill-opacity="1.000000" fill-rule="evenodd"/>
	<path id="Vector (Stroke)" d="M6.42 15C6.56 14.54 7.05 14.28 7.51 14.43C9.32 15 11.21 15.28 13.11 15.26L13.12 15.26C15.02 15.28 16.9 15 18.71 14.43C19.18 14.28 19.67 14.54 19.81 15C19.96 15.46 19.7 15.95 19.24 16.1C17.26 16.72 15.19 17.03 13.11 17.01C11.04 17.03 8.97 16.72 6.99 16.1C6.53 15.95 6.27 15.46 6.42 15Z" fill="#FFFFFF" fill-opacity="1.000000" fill-rule="evenodd"/>
	<path id="Vector (Stroke)" d="M16.81 0.22C17.18 0.01 17.62 -0.06 18.05 0.04C19.2 0.29 20.33 0.64 21.42 1.08C21.67 1.18 21.89 1.33 22.06 1.52C22.25 1.72 22.38 1.95 22.45 2.21L26.16 14.58C26.25 14.91 26.26 15.25 26.16 15.57C26.07 15.9 25.89 16.19 25.64 16.41L25.63 16.41C23.82 17.99 21.37 19.18 18.59 19.86C18.2 19.96 17.79 19.92 17.43 19.75C17.07 19.59 16.78 19.3 16.61 18.94L15.29 16.32C15.07 15.89 15.24 15.37 15.67 15.15C16.1 14.93 16.63 15.1 16.85 15.54L18.17 18.16L18.17 18.16C20.74 17.53 22.93 16.45 24.48 15.09L25.06 15.75L24.48 15.1C24.48 15.1 24.48 15.1 24.48 15.09C24.48 15.09 24.48 15.09 24.48 15.09L20.78 2.71C20.77 2.71 20.77 2.71 20.77 2.71C19.77 2.3 18.73 1.97 17.68 1.75L17.67 1.75C17.67 1.74 17.67 1.75 17.67 1.75C17.66 1.75 17.66 1.75 17.66 1.75L16.8 4.36C16.65 4.82 16.15 5.07 15.69 4.92C15.23 4.76 14.99 4.27 15.14 3.81L16 1.19C16.14 0.78 16.43 0.43 16.81 0.22Z" fill="#FFFFFF" fill-opacity="1.000000" fill-rule="evenodd"/>
	<path id="Vector (Stroke)" d="M8.56 1.75C8.56 1.75 8.56 1.74 8.55 1.75L8.55 1.75C7.5 1.97 6.46 2.3 5.46 2.71C5.46 2.71 5.46 2.71 5.45 2.71L1.75 15.09C1.74 15.09 1.74 15.09 1.75 15.09C1.75 15.1 1.75 15.1 1.75 15.1C3.31 16.45 5.49 17.53 8.05 18.16L8.06 18.16L9.38 15.54C9.6 15.1 10.12 14.93 10.55 15.15C10.99 15.37 11.16 15.89 10.94 16.32L9.62 18.94C9.45 19.3 9.16 19.59 8.8 19.75C8.44 19.92 8.03 19.96 7.64 19.86C4.86 19.18 2.4 17.99 0.6 16.41L0.59 16.41C0.34 16.19 0.16 15.9 0.06 15.57C-0.03 15.25 -0.03 14.91 0.07 14.58L3.78 2.21C3.85 1.95 3.98 1.72 4.16 1.52C4.34 1.33 4.56 1.18 4.81 1.08C5.9 0.64 7.03 0.29 8.18 0.04C8.6 -0.06 9.04 0.01 9.42 0.22C9.8 0.43 10.08 0.78 10.22 1.19L10.23 1.2L11.09 3.81C11.24 4.27 10.99 4.76 10.53 4.92C10.07 5.07 9.58 4.82 9.43 4.36L8.57 1.75C8.57 1.75 8.56 1.75 8.56 1.75Z" fill="#FFFFFF" fill-opacity="1.000000" fill-rule="evenodd"/>
	<path id="Vector" d="M9.61 13.08C10.34 13.08 10.93 12.49 10.93 11.76C10.93 11.04 10.34 10.45 9.61 10.45C8.89 10.45 8.3 11.04 8.3 11.76C8.3 12.49 8.89 13.08 9.61 13.08Z" fill="#FFFFFF" fill-opacity="1.000000" fill-rule="nonzero"/>
	<path id="Vector" d="M16.61 13.08C17.34 13.08 17.93 12.49 17.93 11.76C17.93 11.04 17.34 10.45 16.61 10.45C15.89 10.45 15.3 11.04 15.3 11.76C15.3 12.49 15.89 13.08 16.61 13.08Z" fill="#FFFFFF" fill-opacity="1.000000" fill-rule="nonzero"/>
	<path id="Vector (Stroke)" d="M13.11 4.76C11.21 4.75 9.32 5.03 7.51 5.6C7.05 5.74 6.56 5.49 6.42 5.02C6.27 4.56 6.53 4.07 6.99 3.93C8.97 3.31 11.04 3 13.11 3.01C15.19 3 17.26 3.31 19.24 3.93C19.7 4.07 19.96 4.56 19.81 5.02C19.67 5.49 19.18 5.74 18.71 5.6C16.9 5.03 15.02 4.75 13.12 4.76L13.11 4.76Z" fill="#FFFFFF" fill-opacity="1.000000" fill-rule="evenodd"/>
	<path id="Vector (Stroke)" d="M6.42 15C6.56 14.54 7.05 14.28 7.51 14.43C9.32 15 11.21 15.28 13.11 15.26L13.12 15.26C15.02 15.28 16.9 15 18.71 14.43C19.18 14.28 19.67 14.54 19.81 15C19.96 15.46 19.7 15.95 19.24 16.1C17.26 16.72 15.19 17.03 13.11 17.01C11.04 17.03 8.97 16.72 6.99 16.1C6.53 15.95 6.27 15.46 6.42 15Z" fill="#FFFFFF" fill-opacity="1.000000" fill-rule="evenodd"/>
	<path id="Vector (Stroke)" d="M16.81 0.22C17.18 0.01 17.62 -0.06 18.05 0.04C19.2 0.29 20.33 0.64 21.42 1.08C21.67 1.18 21.89 1.33 22.06 1.52C22.25 1.72 22.38 1.95 22.45 2.21L26.16 14.58C26.25 14.91 26.26 15.25 26.16 15.57C26.07 15.9 25.89 16.19 25.64 16.41L25.63 16.41C23.82 17.99 21.37 19.18 18.59 19.86C18.2 19.96 17.79 19.92 17.43 19.75C17.07 19.59 16.78 19.3 16.61 18.94L15.29 16.32C15.07 15.89 15.24 15.37 15.67 15.15C16.1 14.93 16.63 15.1 16.85 15.54L18.17 18.16L18.17 18.16C20.74 17.53 22.93 16.45 24.48 15.09L25.06 15.75L24.48 15.1C24.48 15.1 24.48 15.1 24.48 15.09C24.48 15.09 24.48 15.09 24.48 15.09L20.78 2.71C20.77 2.71 20.77 2.71 20.77 2.71C19.77 2.3 18.73 1.97 17.68 1.75L17.67 1.75C17.67 1.74 17.67 1.75 17.67 1.75C17.66 1.75 17.66 1.75 17.66 1.75L16.8 4.36C16.65 4.82 16.15 5.07 15.69 4.92C15.23 4.76 14.99 4.27 15.14 3.81L16 1.19C16.14 0.78 16.43 0.43 16.81 0.22Z" fill="#FFFFFF" fill-opacity="1.000000" fill-rule="evenodd"/>
	<path id="Vector (Stroke)" d="M8.56 1.75C8.56 1.75 8.56 1.74 8.55 1.75L8.55 1.75C7.5 1.97 6.46 2.3 5.46 2.71C5.46 2.71 5.46 2.71 5.45 2.71L1.75 15.09C1.74 15.09 1.74 15.09 1.75 15.09C1.75 15.1 1.75 15.1 1.75 15.1C3.31 16.45 5.49 17.53 8.05 18.16L8.06 18.16L9.38 15.54C9.6 15.1 10.12 14.93 10.55 15.15C10.99 15.37 11.16 15.89 10.94 16.32L9.62 18.94C9.45 19.3 9.16 19.59 8.8 19.75C8.44 19.92 8.03 19.96 7.64 19.86C4.86 19.18 2.4 17.99 0.6 16.41L0.59 16.41C0.34 16.19 0.16 15.9 0.06 15.57C-0.03 15.25 -0.03 14.91 0.07 14.58L3.78 2.21C3.85 1.95 3.98 1.72 4.16 1.52C4.34 1.33 4.56 1.18 4.81 1.08C5.9 0.64 7.03 0.29 8.18 0.04C8.6 -0.06 9.04 0.01 9.42 0.22C9.8 0.43 10.08 0.78 10.22 1.19L10.23 1.2L11.09 3.81C11.24 4.27 10.99 4.76 10.53 4.92C10.07 5.07 9.58 4.82 9.43 4.36L8.57 1.75C8.57 1.75 8.56 1.75 8.56 1.75Z" fill="#FFFFFF" fill-opacity="1.000000" fill-rule="evenodd"/>
</svg>
