<svg width="21.875000" height="21.875000" viewBox="0 0 21.875 21.875" fill="none" xmlns="http://www.w3.org/2000/svg" xmlns:xlink="http://www.w3.org/1999/xlink">
	<desc>
			Created with Pixso.
	</desc>
	<defs/>
	<path id="Vector (Stroke)" d="M10.93 7.43C9 7.43 7.43 9 7.43 10.93C7.43 12.87 9 14.43 10.93 14.43C12.87 14.43 14.43 12.87 14.43 10.93C14.43 9 12.87 7.43 10.93 7.43ZM5.68 10.93C5.68 8.03 8.03 5.68 10.93 5.68C13.83 5.68 16.18 8.03 16.18 10.93C16.18 13.83 13.83 16.18 10.93 16.18C8.03 16.18 5.68 13.83 5.68 10.93Z" fill="#FFFFFF" fill-opacity="1.000000" fill-rule="evenodd"/>
	<path id="Vector (Stroke)" d="M6.12 1.75C3.7 1.75 1.75 3.7 1.75 6.12L1.75 15.75C1.75 18.16 3.7 20.12 6.12 20.12L15.75 20.12C18.16 20.12 20.12 18.16 20.12 15.75L20.12 6.12C20.12 3.7 18.16 1.75 15.75 1.75L6.12 1.75ZM0 6.12C0 2.74 2.74 0 6.12 0L15.75 0C19.13 0 21.87 2.74 21.87 6.12L21.87 15.75C21.87 19.13 19.13 21.87 15.75 21.87L6.12 21.87C2.74 21.87 0 19.13 0 15.75L0 6.12Z" fill="#FFFFFF" fill-opacity="1.000000" fill-rule="evenodd"/>
	<path id="Vector" d="M16.62 6.56C17.34 6.56 17.93 5.97 17.93 5.25C17.93 4.52 17.34 3.93 16.62 3.93C15.9 3.93 15.31 4.52 15.31 5.25C15.31 5.97 15.9 6.56 16.62 6.56Z" fill="#FFFFFF" fill-opacity="1.000000" fill-rule="nonzero"/>
</svg>
