<svg width="21.875000" height="21.875000" viewBox="0 0 21.875 21.875" fill="none" xmlns="http://www.w3.org/2000/svg" xmlns:xlink="http://www.w3.org/1999/xlink">
	<desc>
			Created with Pixso.
	</desc>
	<defs/>
	<path id="Vector (Stroke)" d="M0 1.75C0 0.78 0.78 0 1.75 0L20.12 0C21.09 0 21.87 0.78 21.87 1.75L21.87 20.12C21.87 21.09 21.09 21.87 20.12 21.87L1.75 21.87C0.78 21.87 0 21.09 0 20.12L0 1.75ZM20.12 1.75L1.75 1.75L1.75 20.12L20.12 20.12L20.12 1.75Z" fill="#FFFFFF" fill-opacity="1.000000" fill-rule="evenodd"/>
	<path id="Vector (Stroke)" d="M10.06 8.31C10.54 8.31 10.93 8.7 10.93 9.18L10.93 16.18C10.93 16.67 10.54 17.06 10.06 17.06C9.57 17.06 9.18 16.67 9.18 16.18L9.18 9.18C9.18 8.7 9.57 8.31 10.06 8.31Z" fill="#FFFFFF" fill-opacity="1.000000" fill-rule="evenodd"/>
	<path id="Vector (Stroke)" d="M6.56 8.31C7.04 8.31 7.43 8.7 7.43 9.18L7.43 16.18C7.43 16.67 7.04 17.06 6.56 17.06C6.07 17.06 5.68 16.67 5.68 16.18L5.68 9.18C5.68 8.7 6.07 8.31 6.56 8.31Z" fill="#FFFFFF" fill-opacity="1.000000" fill-rule="evenodd"/>
	<path id="Vector (Stroke)" d="M13.12 10.06C12.54 10.06 11.98 10.29 11.57 10.7C11.16 11.11 10.93 11.66 10.93 12.25C10.93 12.73 10.54 13.12 10.06 13.12C9.57 13.12 9.18 12.73 9.18 12.25C9.18 11.2 9.6 10.2 10.34 9.46C11.07 8.72 12.08 8.31 13.12 8.31C14.16 8.31 15.17 8.72 15.9 9.46C16.64 10.2 17.06 11.2 17.06 12.25L17.06 16.18C17.06 16.67 16.67 17.06 16.18 17.06C15.7 17.06 15.31 16.67 15.31 16.18L15.31 12.25C15.31 11.66 15.08 11.11 14.67 10.7C14.26 10.29 13.7 10.06 13.12 10.06Z" fill="#FFFFFF" fill-opacity="1.000000" fill-rule="evenodd"/>
	<path id="Vector" d="M6.56 7C7.28 7 7.87 6.41 7.87 5.68C7.87 4.96 7.28 4.37 6.56 4.37C5.83 4.37 5.25 4.96 5.25 5.68C5.25 6.41 5.83 7 6.56 7Z" fill="#FFFFFF" fill-opacity="1.000000" fill-rule="nonzero"/>
</svg>
