<svg width="47.125000" height="34.437500" viewBox="0 0 47.125 34.4375" fill="none" xmlns="http://www.w3.org/2000/svg" xmlns:xlink="http://www.w3.org/1999/xlink">
	<desc>
			Created with Pixso.
	</desc>
	<defs/>
	<path id="Vector (Stroke)" d="M1.06 1.06C1.74 0.38 2.66 0 3.62 0L17.21 0C18.18 0 19.1 0.38 19.78 1.06C20.46 1.74 20.84 2.66 20.84 3.62L20.84 23.56C20.84 26.44 19.69 29.21 17.65 31.25C15.61 33.29 12.85 34.43 9.96 34.43C8.96 34.43 8.15 33.62 8.15 32.62C8.15 31.62 8.96 30.81 9.96 30.81C11.89 30.81 13.73 30.04 15.09 28.68C16.45 27.32 17.21 25.48 17.21 23.56L17.21 21.75L3.62 21.75C2.66 21.75 1.74 21.36 1.06 20.68C0.38 20 0 19.08 0 18.12L0 3.62C0 2.66 0.38 1.74 1.06 1.06ZM17.21 18.12L17.21 3.62L3.62 3.62L3.62 18.12L17.21 18.12Z" fill="#FFFFFF" fill-opacity="0.100000" fill-rule="evenodd"/>
	<path id="Vector (Stroke)" d="M27.34 1.06C28.02 0.38 28.94 0 29.9 0L43.5 0C44.46 0 45.38 0.38 46.06 1.06C46.74 1.74 47.12 2.66 47.12 3.62L47.12 23.56C47.12 26.44 45.97 29.21 43.93 31.25C41.9 33.29 39.13 34.43 36.25 34.43C35.24 34.43 34.43 33.62 34.43 32.62C34.43 31.62 35.24 30.81 36.25 30.81C38.17 30.81 40.01 30.04 41.37 28.68C42.73 27.32 43.5 25.48 43.5 23.56L43.5 21.75L29.9 21.75C28.94 21.75 28.02 21.36 27.34 20.68C26.66 20 26.28 19.08 26.28 18.12L26.28 3.62C26.28 2.66 26.66 1.74 27.34 1.06ZM43.5 18.12L43.5 3.62L29.9 3.62L29.9 18.12L43.5 18.12Z" fill="#FFFFFF" fill-opacity="0.100000" fill-rule="evenodd"/>
</svg>
