<svg width="62.000000" height="62.000000" viewBox="0 0 62 62" fill="none" xmlns="http://www.w3.org/2000/svg" xmlns:xlink="http://www.w3.org/1999/xlink">
	<desc>
			Created with Pixso.
	</desc>
	<defs/>
	<path id="background" d="M31 0C48.12 0 62 13.87 62 31C62 48.12 48.12 62 31 62C13.87 62 0 48.12 0 31C0 13.87 13.87 0 31 0Z" fill="#27C28A" fill-opacity="1.000000" fill-rule="evenodd"/>
	<rect id="Component 1" rx="0.000000" width="37.000000" height="37.000000" transform="translate(12.500000 12.500000)" fill="#FFFFFF" fill-opacity="0"/>
	<path id="Vector (Stroke)" d="M20.31 20.31C19.99 20.31 19.69 20.43 19.47 20.66C19.25 20.88 19.12 21.18 19.12 21.5C19.12 21.81 19.25 22.11 19.47 22.33C19.69 22.56 19.99 22.68 20.31 22.68L44.06 22.68C44.69 22.68 45.29 22.93 45.74 23.38C46.18 23.82 46.43 24.43 46.43 25.06L46.43 41.68C46.43 42.31 46.18 42.92 45.74 43.36C45.29 43.81 44.69 44.06 44.06 44.06L20.31 44.06C19.36 44.06 18.46 43.68 17.79 43.01C17.12 42.35 16.75 41.44 16.75 40.5L16.75 21.5C16.75 20.55 17.12 19.64 17.79 18.98C18.46 18.31 19.36 17.93 20.31 17.93L40.5 17.93C41.15 17.93 41.68 18.46 41.68 19.12C41.68 19.78 41.15 20.31 40.5 20.31L20.31 20.31ZM19.12 24.85L19.12 40.5C19.12 40.81 19.25 41.11 19.47 41.33C19.69 41.56 19.99 41.68 20.31 41.68L44.06 41.68L44.06 25.06L20.31 25.06C19.9 25.06 19.5 24.99 19.12 24.85Z" fill="#FFFFFF" fill-opacity="1.000000" fill-rule="evenodd"/>
	<path id="Vector" d="M38.71 35.15C39.7 35.15 40.5 34.35 40.5 33.37C40.5 32.39 39.7 31.59 38.71 31.59C37.73 31.59 36.93 32.39 36.93 33.37C36.93 34.35 37.73 35.15 38.71 35.15Z" fill="#FFFFFF" fill-opacity="1.000000" fill-rule="nonzero"/>
</svg>
