<svg width="62.000000" height="62.000000" viewBox="0 0 62 62" fill="none" xmlns="http://www.w3.org/2000/svg" xmlns:xlink="http://www.w3.org/1999/xlink">
	<desc>
			Created with Pixso.
	</desc>
	<defs/>
	<path id="background" d="M31 0C48.12 0 62 13.87 62 31C62 48.12 48.12 62 31 62C13.87 62 0 48.12 0 31C0 13.87 13.87 0 31 0Z" fill="#BD47FC" fill-opacity="1.000000" fill-rule="evenodd"/>
	<rect id="Component 1" rx="0.000000" width="37.000000" height="37.000000" transform="translate(12.500000 12.500000)" fill="#FFFFFF" fill-opacity="0"/>
	<path id="Vector (Stroke)" d="M30.37 15.73C30.75 15.5 31.24 15.5 31.62 15.73L47.05 25.23C47.51 25.51 47.72 26.06 47.58 26.57C47.43 27.08 46.96 27.43 46.43 27.43L15.56 27.43C15.03 27.43 14.56 27.08 14.41 26.57C14.27 26.06 14.48 25.51 14.94 25.23L30.37 15.73ZM19.75 25.06L42.24 25.06L31 18.14L19.75 25.06Z" fill="#FFFFFF" fill-opacity="1.000000" fill-rule="evenodd"/>
	<path id="Vector (Stroke)" d="M20.31 25.06C20.96 25.06 21.5 25.59 21.5 26.25L21.5 38.12C21.5 38.78 20.96 39.31 20.31 39.31C19.65 39.31 19.12 38.78 19.12 38.12L19.12 26.25C19.12 25.59 19.65 25.06 20.31 25.06Z" fill="#FFFFFF" fill-opacity="1.000000" fill-rule="evenodd"/>
	<path id="Vector (Stroke)" d="M27.43 25.06C28.09 25.06 28.62 25.59 28.62 26.25L28.62 38.12C28.62 38.78 28.09 39.31 27.43 39.31C26.78 39.31 26.25 38.78 26.25 38.12L26.25 26.25C26.25 25.59 26.78 25.06 27.43 25.06Z" fill="#FFFFFF" fill-opacity="1.000000" fill-rule="evenodd"/>
	<path id="Vector (Stroke)" d="M34.56 25.06C35.21 25.06 35.75 25.59 35.75 26.25L35.75 38.12C35.75 38.78 35.21 39.31 34.56 39.31C33.9 39.31 33.37 38.78 33.37 38.12L33.37 26.25C33.37 25.59 33.9 25.06 34.56 25.06Z" fill="#FFFFFF" fill-opacity="1.000000" fill-rule="evenodd"/>
	<path id="Vector (Stroke)" d="M41.68 25.06C42.34 25.06 42.87 25.59 42.87 26.25L42.87 38.12C42.87 38.78 42.34 39.31 41.68 39.31C41.03 39.31 40.5 38.78 40.5 38.12L40.5 26.25C40.5 25.59 41.03 25.06 41.68 25.06Z" fill="#FFFFFF" fill-opacity="1.000000" fill-rule="evenodd"/>
	<path id="Vector (Stroke)" d="M15.56 38.12C15.56 37.46 16.09 36.93 16.75 36.93L45.25 36.93C45.9 36.93 46.43 37.46 46.43 38.12C46.43 38.78 45.9 39.31 45.25 39.31L16.75 39.31C16.09 39.31 15.56 38.78 15.56 38.12Z" fill="#FFFFFF" fill-opacity="1.000000" fill-rule="evenodd"/>
	<path id="Vector (Stroke)" d="M13.18 42.87C13.18 42.21 13.71 41.68 14.37 41.68L47.62 41.68C48.28 41.68 48.81 42.21 48.81 42.87C48.81 43.53 48.28 44.06 47.62 44.06L14.37 44.06C13.71 44.06 13.18 43.53 13.18 42.87Z" fill="#FFFFFF" fill-opacity="1.000000" fill-rule="evenodd"/>
</svg>
