<svg width="62.000000" height="62.000000" viewBox="0 0 62 62" fill="none" xmlns="http://www.w3.org/2000/svg" xmlns:xlink="http://www.w3.org/1999/xlink">
	<desc>
			Created with Pixso.
	</desc>
	<defs/>
	<path id="background" d="M31 0C48.12 0 62 13.87 62 31C62 48.12 48.12 62 31 62C13.87 62 0 48.12 0 31C0 13.87 13.87 0 31 0Z" fill="#F8931A" fill-opacity="1.000000" fill-rule="evenodd"/>
	<rect id="Component 1" rx="0.000000" width="37.000000" height="37.000000" transform="translate(12.500000 12.500000)" fill="#FFFFFF" fill-opacity="0"/>
	<path id="Vector (Stroke)" d="M31 17.93C26.4 17.93 22.68 21.65 22.68 26.25C22.68 30.84 26.4 34.56 31 34.56C35.59 34.56 39.31 30.84 39.31 26.25C39.31 21.65 35.59 17.93 31 17.93ZM20.31 26.25C20.31 20.34 25.09 15.56 31 15.56C36.9 15.56 41.68 20.34 41.68 26.25C41.68 32.15 36.9 36.93 31 36.93C25.09 36.93 20.31 32.15 20.31 26.25Z" fill="#FFFFFF" fill-opacity="1.000000" fill-rule="evenodd"/>
	<path id="Vector (Stroke)" d="M31 36.93C28.28 36.93 25.62 37.64 23.28 39C20.93 40.35 18.98 42.3 17.63 44.65C17.3 45.22 16.57 45.41 16 45.09C15.43 44.76 15.24 44.03 15.57 43.46C17.13 40.76 19.38 38.51 22.09 36.94C24.8 35.38 27.87 34.56 31 34.56C34.12 34.56 37.19 35.38 39.9 36.94C42.61 38.51 44.86 40.76 46.42 43.46C46.75 44.03 46.56 44.76 45.99 45.09C45.42 45.41 44.69 45.22 44.37 44.65C43.01 42.3 41.06 40.35 38.71 39C36.37 37.64 33.71 36.93 31 36.93Z" fill="#FFFFFF" fill-opacity="1.000000" fill-rule="evenodd"/>
</svg>
