<svg width="62.000000" height="62.000000" viewBox="0 0 62 62" fill="none" xmlns="http://www.w3.org/2000/svg" xmlns:xlink="http://www.w3.org/1999/xlink">
	<desc>
			Created with Pixso.
	</desc>
	<defs/>
	<path id="background" d="M31 0C48.12 0 62 13.87 62 31C62 48.12 48.12 62 31 62C13.87 62 0 48.12 0 31C0 13.87 13.87 0 31 0Z" fill="#F72357" fill-opacity="1.000000" fill-rule="evenodd"/>
	<rect id="Component 1" rx="0.000000" width="37.000000" height="37.000000" transform="translate(12.500000 12.500000)" fill="#FFFFFF" fill-opacity="0"/>
	<path id="Vector (Stroke)" d="M16.75 17.93C17.4 17.93 17.93 18.46 17.93 19.12L17.93 41.68L45.25 41.68C45.9 41.68 46.43 42.21 46.43 42.87C46.43 43.53 45.9 44.06 45.25 44.06L16.75 44.06C16.09 44.06 15.56 43.53 15.56 42.87L15.56 19.12C15.56 18.46 16.09 17.93 16.75 17.93Z" fill="#FFFFFF" fill-opacity="1.000000" fill-rule="evenodd"/>
	<path id="Vector (Stroke)" d="M43.71 20.66C44.17 21.12 44.17 21.87 43.71 22.33L31.83 34.21C31.37 34.67 30.62 34.67 30.16 34.21L26.25 30.3L17.58 38.96C17.12 39.42 16.37 39.42 15.91 38.96C15.44 38.5 15.44 37.74 15.91 37.28L25.41 27.78C25.87 27.32 26.62 27.32 27.08 27.78L31 31.69L42.03 20.66C42.49 20.19 43.25 20.19 43.71 20.66Z" fill="#FFFFFF" fill-opacity="1.000000" fill-rule="evenodd"/>
	<path id="Vector (Stroke)" d="M35.75 21.5C35.75 20.84 36.28 20.31 36.93 20.31L42.87 20.31C43.53 20.31 44.06 20.84 44.06 21.5L44.06 27.43C44.06 28.09 43.53 28.62 42.87 28.62C42.21 28.62 41.68 28.09 41.68 27.43L41.68 22.68L36.93 22.68C36.28 22.68 35.75 22.15 35.75 21.5Z" fill="#FFFFFF" fill-opacity="1.000000" fill-rule="evenodd"/>
</svg>
