<svg width="91.214111" height="14.284180" viewBox="0 0 91.2141 14.2842" fill="none" xmlns="http://www.w3.org/2000/svg" xmlns:xlink="http://www.w3.org/1999/xlink">
	<desc>
			Created with Pixso.
	</desc>
	<defs/>
	<path id="Vector" d="M0.21 4.54C0.24 4.42 0.28 4.29 0.33 4.19C0.26 4.29 0.23 4.42 0.21 4.54ZM4.61 0.94C4.77 0.92 4.92 0.92 5.08 0.92C5.11 0.92 5.15 0.92 5.18 0.92C4.99 0.9 4.81 0.9 4.61 0.94ZM8.43 2.17C8.55 2.3 8.7 2.4 8.8 2.54C8.7 2.4 8.57 2.28 8.43 2.17Z" fill="#1B70F1" fill-opacity="1.000000" fill-rule="nonzero"/>
	<path id="Vector" d="M7.61 7.47L9.48 8.55C8.57 10.12 6.9 11.1 5.08 11.1C2.28 11.1 0 8.8 0 6.02C0 5.52 0.07 5.02 0.21 4.56C0.24 4.44 0.28 4.31 0.33 4.2C0.46 3.99 0.64 3.79 0.9 3.69C1.03 3.63 1.15 3.6 1.28 3.56C1.39 2.65 1.99 2.24 2.79 2.05C2.92 2.01 3.06 1.94 3.15 1.83C3.6 1.35 4.1 1.05 4.61 0.96C4.77 0.94 4.92 0.94 5.08 0.94C5.11 0.94 5.15 0.94 5.18 0.94C5.67 0.99 6.17 1.21 6.63 1.62C6.74 1.71 6.91 1.76 7.06 1.76C7.61 1.78 8.07 1.92 8.43 2.19C8.55 2.31 8.7 2.42 8.8 2.56C9.05 2.85 9.29 3.15 9.48 3.49L9.27 3.62L8.2 4.24C7.98 4.22 7.77 4.17 7.56 4.15C7.47 4.13 7.38 4.13 7.29 4.15C7.18 4.03 7.07 3.92 6.95 3.81C7.13 3.78 7.34 3.78 7.56 3.79C7.88 3.83 8.02 3.67 7.88 3.37C7.81 3.19 7.68 3.03 7.57 2.83C7.98 2.96 8.02 2.97 8.32 3.56C8.43 3.76 8.57 3.92 8.77 3.79C8.89 3.72 8.98 3.47 8.95 3.31C8.84 2.69 7.9 2.03 7.27 2.12C7.18 2.13 7.04 2.28 7.04 2.37C7.04 3.2 7.04 3.2 6.31 3.37L6.29 3.38C6.18 3.33 6.06 3.28 5.93 3.24C5.84 2.62 5.63 2.51 5.18 1.97C5.36 2.03 5.54 2.08 5.68 2.19C5.86 2.33 6 2.55 6.18 2.71C6.29 2.79 6.47 2.81 6.61 2.87C6.65 2.71 6.74 2.55 6.7 2.4C6.52 1.8 6.06 1.46 5.45 1.33C4.85 1.21 4.27 1.28 3.79 1.72C3.72 1.78 3.69 1.87 3.7 1.85C4.1 2.1 4.52 2.28 4.83 2.6C4.97 2.76 5.08 2.92 5.15 3.12C5.13 3.12 5.1 3.12 5.06 3.12C4.95 3.12 4.83 3.12 4.72 3.13C4.6 2.85 4.38 2.62 4.11 2.47C3.49 2.17 2.46 2.31 1.94 2.78C1.65 3.03 1.53 3.33 1.65 3.69C1.69 3.79 1.87 3.92 1.99 3.94C2.37 3.99 2.58 3.74 2.79 3.47C2.83 3.44 2.83 3.37 2.85 3.28L2.21 3.28C2.79 2.76 3.38 2.85 3.9 3.37C3.79 3.42 3.69 3.45 3.6 3.53C3.42 3.38 3.28 3.37 3.12 3.62C3.01 3.78 2.88 3.92 2.74 4.06C2.35 4.45 1.85 4.45 1.42 4.08C1.35 4.01 1.15 3.97 1.1 4.03C0.94 4.13 0.73 4.31 0.73 4.45C0.73 4.65 0.89 4.88 1.05 5.01C1.4 5.26 1.85 5.22 2.22 5.02C2.28 5.01 2.31 4.97 2.37 4.95C2.24 5.24 2.17 5.54 2.15 5.86C2.15 5.93 2.15 6 2.15 6.08C2.15 7.7 3.47 9 5.08 9C6.17 8.93 7.11 8.34 7.61 7.47Z" fill="#1B70F1" fill-opacity="1.000000" fill-rule="nonzero"/>
	<path id="Vector" d="M15.56 3.72L14.95 6.17C14.85 6.11 14.72 6.06 14.54 6C14.37 5.97 14.19 5.95 14.01 5.95C13.81 5.95 13.62 5.99 13.44 6.06C13.26 6.13 13.12 6.24 12.99 6.36C12.87 6.49 12.78 6.65 12.71 6.83C12.64 7 12.6 7.2 12.6 7.41L12.6 11.1L10.37 11.1L10.37 3.74L12.48 3.74L12.53 4.86C12.58 4.77 12.65 4.69 12.71 4.6C12.96 4.28 13.26 4.03 13.6 3.85C13.94 3.67 14.31 3.58 14.69 3.58C14.85 3.58 15.01 3.6 15.15 3.62C15.31 3.65 15.44 3.69 15.56 3.72Z" fill="#1B70F1" fill-opacity="1.000000" fill-rule="nonzero"/>
	<path id="Vector" d="M24.21 3.74L21.07 11.09L19.81 14.28L17.61 14.28L19.06 10.89L15.78 3.74L18.27 3.74L19.82 7.43C19.91 7.61 19.98 7.81 20.06 8.02C20.09 8.09 20.11 8.16 20.13 8.23C20.2 8.04 20.25 7.84 20.34 7.61L21.7 3.72L24.21 3.72L24.21 3.74Z" fill="#1B70F1" fill-opacity="1.000000" fill-rule="nonzero"/>
	<path id="Vector" d="M32.52 5.43C32.24 4.86 31.84 4.42 31.36 4.1C30.88 3.78 30.31 3.6 29.69 3.6C29.26 3.6 28.87 3.67 28.47 3.83C28.08 3.99 27.78 4.19 27.53 4.44C27.49 4.47 27.46 4.51 27.44 4.54L27.4 3.74L25.3 3.74L25.3 14.14L27.53 14.14L27.53 10.34C27.8 10.61 28.1 10.82 28.49 10.96C28.87 11.12 29.26 11.19 29.69 11.19C30.33 11.19 30.9 11.03 31.38 10.71C31.88 10.39 32.25 9.95 32.54 9.36C32.82 8.79 32.97 8.13 32.97 7.38C32.93 6.66 32.79 6 32.52 5.43ZM30.56 8.45C30.42 8.73 30.22 8.95 29.97 9.13C29.72 9.29 29.44 9.36 29.1 9.36C28.76 9.36 28.46 9.29 28.21 9.13C27.96 8.96 27.76 8.75 27.62 8.45C27.47 8.14 27.4 7.82 27.4 7.41C27.4 7.02 27.47 6.68 27.62 6.4C27.76 6.11 27.96 5.88 28.21 5.72C28.46 5.56 28.76 5.49 29.1 5.49C29.44 5.49 29.74 5.56 29.97 5.72C30.22 5.88 30.4 6.11 30.54 6.4C30.68 6.68 30.76 7.02 30.76 7.41C30.77 7.81 30.7 8.14 30.56 8.45Z" fill="#1B70F1" fill-opacity="1.000000" fill-rule="nonzero"/>
	<path id="Vector" d="M38.66 3.74L38.66 3.94C38.51 4.11 38.39 4.29 38.28 4.49C38.05 4.86 37.87 5.26 37.75 5.68L37.23 5.68L37.23 11.1L35.02 11.1L35.02 5.68L33.72 5.68L33.72 3.74L35.02 3.74L35.02 1.89L37.23 1.89L37.23 3.74L38.66 3.74Z" fill="#1B70F1" fill-opacity="1.000000" fill-rule="nonzero"/>
	<path id="Vector" d="M43.31 11.23C42.54 11.23 41.86 11.07 41.26 10.73C40.67 10.39 40.19 9.95 39.85 9.38C39.51 8.8 39.33 8.14 39.33 7.41C39.33 6.68 39.51 6.02 39.85 5.45C40.19 4.88 40.67 4.44 41.26 4.1C41.85 3.76 42.54 3.6 43.31 3.6C44.08 3.6 44.75 3.76 45.36 4.1C45.95 4.44 46.43 4.88 46.77 5.45C47.11 6.02 47.29 6.68 47.29 7.41C47.29 8.14 47.11 8.8 46.77 9.38C46.43 9.95 45.97 10.39 45.36 10.73C44.75 11.07 44.08 11.23 43.31 11.23ZM43.31 9.32C43.65 9.32 43.93 9.23 44.2 9.07C44.45 8.91 44.66 8.68 44.81 8.39C44.95 8.11 45.02 7.79 45.02 7.41C45.04 7.04 44.97 6.72 44.81 6.41C44.66 6.13 44.45 5.9 44.2 5.74C43.95 5.58 43.65 5.49 43.31 5.49C42.97 5.49 42.68 5.58 42.42 5.74C42.15 5.9 41.95 6.13 41.79 6.41C41.65 6.7 41.58 7.04 41.58 7.41C41.56 7.79 41.63 8.11 41.79 8.39C41.94 8.68 42.15 8.91 42.42 9.07C42.68 9.23 42.97 9.32 43.31 9.32Z" fill="#1B70F1" fill-opacity="1.000000" fill-rule="nonzero"/>
	<path id="Vector" d="M55.47 7.02C55.29 6.68 55.05 6.4 54.74 6.17C54.53 6 54.3 5.9 54.05 5.81C54.37 5.67 54.64 5.45 54.83 5.18C55.1 4.81 55.24 4.35 55.24 3.79C55.24 3.29 55.13 2.87 54.88 2.51C54.65 2.15 54.3 1.89 53.83 1.69C53.37 1.49 52.82 1.4 52.14 1.4L47.86 1.4L47.86 3.81C48.04 4.03 48.2 4.26 48.34 4.51C48.86 5.36 49.12 6.34 49.12 7.41C49.12 8.48 48.88 9.46 48.36 10.32C48.22 10.57 48.05 10.8 47.86 11.02L47.86 11.09L52.28 11.09C52.78 11.09 53.26 11.03 53.67 10.91C54.1 10.78 54.46 10.61 54.78 10.36C55.1 10.11 55.33 9.8 55.49 9.43C55.65 9.07 55.74 8.64 55.74 8.14C55.74 7.73 55.65 7.36 55.47 7.02ZM50.07 3.37L51.71 3.37C52.12 3.37 52.42 3.45 52.62 3.63C52.82 3.81 52.92 4.04 52.92 4.33C52.92 4.52 52.89 4.7 52.8 4.85C52.71 4.99 52.58 5.1 52.41 5.18C52.23 5.26 52.03 5.29 51.78 5.29L50.05 5.29L50.05 3.37L50.07 3.37ZM53.26 8.64C53.15 8.8 53.03 8.93 52.83 9C52.66 9.09 52.42 9.13 52.17 9.13L50.05 9.13L50.05 7.04L52.1 7.04C52.37 7.04 52.6 7.07 52.8 7.15C52.99 7.22 53.14 7.34 53.24 7.48C53.35 7.63 53.4 7.81 53.4 8.02C53.42 8.29 53.37 8.48 53.26 8.64Z" fill="#FFFFFF" fill-opacity="1.000000" fill-rule="nonzero"/>
	<path id="Vector" d="M62.52 3.72L61.91 6.17C61.8 6.11 61.68 6.06 61.5 6C61.32 5.95 61.16 5.95 60.96 5.95C60.77 5.95 60.57 5.99 60.39 6.06C60.22 6.13 60.07 6.24 59.95 6.36C59.82 6.49 59.73 6.65 59.66 6.83C59.59 7 59.56 7.2 59.56 7.41L59.56 11.1L57.33 11.1L57.33 3.74L59.43 3.74L59.48 4.86C59.54 4.77 59.59 4.69 59.66 4.61C59.91 4.29 60.22 4.04 60.55 3.86C60.89 3.69 61.27 3.6 61.64 3.6C61.8 3.6 61.96 3.62 62.11 3.63C62.25 3.65 62.39 3.69 62.52 3.72Z" fill="#FFFFFF" fill-opacity="1.000000" fill-rule="nonzero"/>
	<path id="Vector" d="M68.29 3.74L68.29 4.63C68.15 4.45 68.01 4.29 67.83 4.17C67.62 3.99 67.35 3.85 67.06 3.74C66.78 3.63 66.46 3.58 66.1 3.58C65.46 3.58 64.89 3.74 64.39 4.06C63.89 4.38 63.5 4.85 63.21 5.42C62.93 5.99 62.78 6.65 62.78 7.4C62.78 8.13 62.93 8.79 63.21 9.36C63.5 9.93 63.89 10.39 64.37 10.71C64.85 11.03 65.4 11.19 66.03 11.19C66.37 11.19 66.67 11.14 66.97 11.05C67.28 10.94 67.54 10.82 67.78 10.64C67.96 10.52 68.12 10.36 68.24 10.21L68.24 11.09L70.49 11.09L70.49 3.74L68.29 3.74ZM68.12 8.45C67.97 8.73 67.78 8.96 67.53 9.13C67.28 9.29 66.97 9.36 66.64 9.36C66.3 9.36 66.01 9.29 65.78 9.13C65.53 8.96 65.33 8.75 65.21 8.45C65.07 8.16 64.99 7.82 64.99 7.41C64.99 7.02 65.07 6.68 65.21 6.38C65.35 6.09 65.53 5.86 65.78 5.7C66.01 5.54 66.31 5.47 66.64 5.47C66.97 5.47 67.28 5.54 67.53 5.7C67.78 5.86 67.97 6.09 68.12 6.38C68.26 6.66 68.33 7.02 68.33 7.41C68.33 7.81 68.26 8.14 68.12 8.45Z" fill="#FFFFFF" fill-opacity="1.000000" fill-rule="nonzero"/>
	<path id="Vector" d="M73.68 2.3C73.27 2.3 72.93 2.19 72.7 1.99C72.47 1.8 72.34 1.51 72.34 1.14C72.34 0.8 72.47 0.53 72.7 0.32C72.93 0.1 73.27 0 73.66 0C74.07 0 74.39 0.1 74.62 0.3C74.86 0.49 74.96 0.78 74.96 1.14C74.96 1.48 74.84 1.76 74.61 1.97C74.37 2.19 74.09 2.3 73.68 2.3ZM72.57 11.1L72.57 3.74L74.8 3.74L74.8 11.09L72.57 11.09L72.57 11.1Z" fill="#FFFFFF" fill-opacity="1.000000" fill-rule="nonzero"/>
	<path id="Vector" d="M83.81 6.58L83.81 11.09L81.58 11.09L81.58 6.77C81.58 6.47 81.54 6.24 81.46 6.04C81.37 5.84 81.24 5.7 81.08 5.61C80.9 5.52 80.71 5.47 80.46 5.49C80.26 5.49 80.08 5.52 79.92 5.58C79.76 5.63 79.62 5.72 79.49 5.84C79.37 5.95 79.28 6.09 79.21 6.24C79.14 6.38 79.1 6.54 79.1 6.72L79.1 11.12L76.89 11.12L76.89 3.74L78.99 3.74L79.03 4.65C79.07 4.6 79.12 4.54 79.16 4.49C79.42 4.22 79.74 3.99 80.1 3.83C80.47 3.67 80.85 3.58 81.26 3.58C81.81 3.58 82.28 3.69 82.65 3.92C83.02 4.15 83.31 4.49 83.51 4.93C83.72 5.38 83.81 5.93 83.81 6.58Z" fill="#FFFFFF" fill-opacity="1.000000" fill-rule="nonzero"/>
	<path id="Vector" d="M88.14 11.23C87.43 11.23 86.79 11.12 86.23 10.89C85.68 10.66 85.25 10.36 84.93 9.96L86.27 8.8C86.55 9.09 86.88 9.3 87.23 9.43C87.59 9.57 87.93 9.62 88.25 9.62C88.37 9.62 88.5 9.61 88.59 9.59C88.69 9.55 88.77 9.52 88.84 9.46C88.91 9.41 88.96 9.36 89 9.29C89.03 9.21 89.05 9.14 89.05 9.04C89.05 8.86 88.96 8.72 88.8 8.61C88.71 8.55 88.59 8.5 88.39 8.45C88.2 8.38 87.95 8.31 87.64 8.23C87.21 8.13 86.84 7.98 86.52 7.84C86.2 7.68 85.93 7.5 85.73 7.31C85.56 7.11 85.41 6.9 85.31 6.66C85.2 6.43 85.15 6.17 85.15 5.86C85.15 5.52 85.24 5.2 85.4 4.93C85.56 4.65 85.77 4.42 86.04 4.22C86.31 4.03 86.63 3.86 86.98 3.76C87.34 3.65 87.71 3.6 88.09 3.6C88.5 3.6 88.89 3.65 89.25 3.74C89.62 3.83 89.96 3.95 90.28 4.13C90.6 4.29 90.89 4.49 91.14 4.72L89.98 6.02C89.82 5.86 89.62 5.72 89.43 5.59C89.21 5.47 89 5.36 88.78 5.29C88.57 5.22 88.36 5.18 88.18 5.18C88.03 5.18 87.91 5.2 87.8 5.22C87.7 5.24 87.61 5.27 87.54 5.33C87.46 5.38 87.41 5.43 87.38 5.51C87.34 5.58 87.32 5.65 87.32 5.76C87.32 5.84 87.34 5.93 87.39 6.02C87.45 6.11 87.52 6.18 87.61 6.24C87.7 6.29 87.84 6.36 88.05 6.41C88.25 6.49 88.53 6.58 88.89 6.66C89.32 6.79 89.69 6.91 90.01 7.07C90.34 7.22 90.59 7.4 90.76 7.61C90.91 7.77 91.01 7.95 91.1 8.16C91.17 8.38 91.21 8.59 91.21 8.84C91.21 9.3 91.08 9.73 90.82 10.09C90.55 10.45 90.19 10.75 89.73 10.94C89.27 11.14 88.73 11.23 88.14 11.23Z" fill="#FFFFFF" fill-opacity="1.000000" fill-rule="nonzero"/>
</svg>
