<svg width="21.000000" height="21.000000" viewBox="0 0 21 21" fill="none" xmlns="http://www.w3.org/2000/svg" xmlns:xlink="http://www.w3.org/1999/xlink">
	<desc>
			Created with Pixso.
	</desc>
	<defs/>
	<path id="Vector (Stroke)" d="M4.81 1.75C3.12 1.75 1.75 3.12 1.75 4.81C1.75 6.5 3.12 7.87 4.81 7.87C6.5 7.87 7.87 6.5 7.87 4.81C7.87 3.12 6.5 1.75 4.81 1.75ZM0 4.81C0 2.15 2.15 0 4.81 0C7.47 0 9.62 2.15 9.62 4.81C9.62 7.47 7.47 9.62 4.81 9.62C2.15 9.62 0 7.47 0 4.81Z" fill="#FFFFFF" fill-opacity="1.000000" fill-rule="evenodd"/>
	<path id="Vector (Stroke)" d="M16.18 1.75C14.49 1.75 13.12 3.12 13.12 4.81C13.12 6.5 14.49 7.87 16.18 7.87C17.87 7.87 19.25 6.5 19.25 4.81C19.25 3.12 17.87 1.75 16.18 1.75ZM11.37 4.81C11.37 2.15 13.52 0 16.18 0C18.84 0 21 2.15 21 4.81C21 7.47 18.84 9.62 16.18 9.62C13.52 9.62 11.37 7.47 11.37 4.81Z" fill="#FFFFFF" fill-opacity="1.000000" fill-rule="evenodd"/>
	<path id="Vector (Stroke)" d="M4.81 13.12C3.12 13.12 1.75 14.49 1.75 16.18C1.75 17.87 3.12 19.25 4.81 19.25C6.5 19.25 7.87 17.87 7.87 16.18C7.87 14.49 6.5 13.12 4.81 13.12ZM0 16.18C0 13.52 2.15 11.37 4.81 11.37C7.47 11.37 9.62 13.52 9.62 16.18C9.62 18.84 7.47 21 4.81 21C2.15 21 0 18.84 0 16.18Z" fill="#FFFFFF" fill-opacity="1.000000" fill-rule="evenodd"/>
	<path id="Vector (Stroke)" d="M16.18 13.12C14.49 13.12 13.12 14.49 13.12 16.18C13.12 17.87 14.49 19.25 16.18 19.25C17.87 19.25 19.25 17.87 19.25 16.18C19.25 14.49 17.87 13.12 16.18 13.12ZM11.37 16.18C11.37 13.52 13.52 11.37 16.18 11.37C18.84 11.37 21 13.52 21 16.18C21 18.84 18.84 21 16.18 21C13.52 21 11.37 18.84 11.37 16.18Z" fill="#FFFFFF" fill-opacity="1.000000" fill-rule="evenodd"/>
</svg>
