<svg width="149.851562" height="23.466797" viewBox="0 0 149.852 23.4668" fill="none" xmlns="http://www.w3.org/2000/svg" xmlns:xlink="http://www.w3.org/1999/xlink">
	<desc>
			Created with Pixso.
	</desc>
	<defs/>
	<path id="Vector" d="M0.35 7.47C0.41 7.26 0.46 7.06 0.55 6.88C0.43 7.06 0.38 7.26 0.35 7.47ZM7.58 1.55C7.85 1.52 8.08 1.52 8.34 1.52C8.4 1.52 8.46 1.52 8.52 1.52C8.2 1.49 7.91 1.49 7.58 1.55ZM13.85 3.57C14.06 3.77 14.29 3.95 14.47 4.18C14.29 3.95 14.09 3.74 13.85 3.57Z" fill="#1B70F1" fill-opacity="1.000000" fill-rule="nonzero"/>
	<path id="Vector" d="M12.5 12.27L15.58 14.06C14.09 16.64 11.33 18.25 8.34 18.25C3.75 18.25 0 14.47 0 9.9C0 9.08 0.11 8.26 0.35 7.5C0.41 7.29 0.46 7.08 0.55 6.91C0.76 6.56 1.05 6.24 1.49 6.06C1.69 5.97 1.9 5.91 2.1 5.85C2.28 4.36 3.28 3.69 4.59 3.36C4.8 3.31 5.03 3.19 5.18 3.01C5.91 2.22 6.73 1.72 7.58 1.58C7.85 1.55 8.08 1.55 8.34 1.55C8.4 1.55 8.46 1.55 8.52 1.55C9.31 1.64 10.13 1.99 10.89 2.66C11.07 2.81 11.36 2.9 11.6 2.9C12.5 2.92 13.27 3.16 13.85 3.6C14.06 3.8 14.29 3.98 14.47 4.21C14.88 4.68 15.26 5.18 15.58 5.74L15.23 5.94L13.47 6.97C13.12 6.94 12.77 6.85 12.42 6.82C12.27 6.79 12.12 6.79 11.98 6.82C11.8 6.62 11.63 6.44 11.42 6.26C11.71 6.21 12.07 6.21 12.42 6.24C12.94 6.29 13.18 6.03 12.94 5.53C12.83 5.24 12.62 4.98 12.45 4.65C13.12 4.86 13.18 4.89 13.68 5.85C13.85 6.18 14.09 6.44 14.41 6.24C14.61 6.12 14.76 5.71 14.7 5.44C14.53 4.42 12.97 3.33 11.95 3.48C11.8 3.51 11.57 3.75 11.57 3.89C11.57 5.27 11.57 5.27 10.37 5.53L10.34 5.56C10.16 5.47 9.96 5.39 9.75 5.33C9.6 4.3 9.25 4.13 8.52 3.25C8.81 3.33 9.11 3.42 9.34 3.6C9.63 3.83 9.87 4.18 10.16 4.45C10.34 4.59 10.63 4.62 10.86 4.71C10.92 4.45 11.07 4.18 11.01 3.95C10.72 2.95 9.96 2.4 8.96 2.19C7.96 1.99 7.03 2.1 6.24 2.84C6.12 2.92 6.06 3.07 6.09 3.04C6.73 3.45 7.44 3.75 7.93 4.27C8.17 4.54 8.34 4.8 8.46 5.12C8.43 5.12 8.37 5.12 8.32 5.12C8.14 5.12 7.93 5.12 7.76 5.15C7.55 4.68 7.2 4.3 6.76 4.07C5.74 3.57 4.04 3.8 3.19 4.57C2.72 4.98 2.51 5.47 2.72 6.06C2.78 6.24 3.07 6.44 3.28 6.47C3.89 6.56 4.24 6.15 4.59 5.71C4.65 5.65 4.65 5.53 4.68 5.39L3.63 5.39C4.59 4.54 5.56 4.68 6.41 5.53C6.24 5.62 6.06 5.68 5.91 5.8C5.62 5.56 5.39 5.53 5.12 5.94C4.95 6.21 4.74 6.44 4.51 6.67C3.86 7.32 3.04 7.32 2.34 6.7C2.22 6.59 1.9 6.53 1.81 6.62C1.55 6.79 1.2 7.08 1.2 7.32C1.2 7.64 1.46 8.02 1.72 8.23C2.31 8.64 3.04 8.58 3.66 8.26C3.75 8.23 3.8 8.17 3.89 8.14C3.69 8.61 3.57 9.11 3.54 9.63C3.54 9.75 3.54 9.87 3.54 9.99C3.54 12.65 5.71 14.79 8.34 14.79C10.13 14.67 11.68 13.71 12.5 12.27Z" fill="#1B70F1" fill-opacity="1.000000" fill-rule="nonzero"/>
	<path id="Vector" d="M25.57 6.12L24.57 10.13C24.4 10.04 24.19 9.96 23.9 9.87C23.6 9.81 23.31 9.78 23.02 9.78C22.7 9.78 22.37 9.84 22.08 9.96C21.79 10.07 21.55 10.25 21.35 10.45C21.14 10.66 21 10.92 20.88 11.22C20.76 11.51 20.7 11.83 20.7 12.18L20.7 18.25L17.04 18.25L17.04 6.15L20.5 6.15L20.59 7.99C20.67 7.85 20.79 7.7 20.88 7.55C21.29 7.03 21.79 6.62 22.34 6.32C22.9 6.03 23.52 5.88 24.13 5.88C24.4 5.88 24.66 5.91 24.89 5.94C25.16 6 25.36 6.06 25.57 6.12Z" fill="#1B70F1" fill-opacity="1.000000" fill-rule="nonzero"/>
	<path id="Vector" d="M39.78 6.15L34.62 18.22L32.54 23.46L28.94 23.46L31.31 17.9L25.92 6.15L30.02 6.15L32.57 12.21C32.72 12.5 32.83 12.83 32.95 13.18C33.01 13.3 33.04 13.41 33.07 13.53C33.19 13.21 33.27 12.89 33.42 12.5L35.65 6.12L39.78 6.12L39.78 6.15Z" fill="#1B70F1" fill-opacity="1.000000" fill-rule="nonzero"/>
	<path id="Vector" d="M53.43 8.93C52.96 7.99 52.32 7.26 51.53 6.73C50.74 6.21 49.8 5.91 48.77 5.91C48.07 5.91 47.42 6.03 46.78 6.29C46.14 6.56 45.64 6.88 45.23 7.29C45.17 7.35 45.11 7.41 45.08 7.47L45.02 6.15L41.57 6.15L41.57 23.23L45.23 23.23L45.23 16.99C45.67 17.43 46.16 17.78 46.81 18.01C47.42 18.28 48.07 18.39 48.77 18.39C49.83 18.39 50.76 18.13 51.56 17.6C52.38 17.08 52.99 16.34 53.46 15.38C53.93 14.44 54.16 13.35 54.16 12.12C54.1 10.95 53.87 9.87 53.43 8.93ZM50.21 13.88C49.97 14.35 49.65 14.7 49.24 15C48.83 15.26 48.36 15.38 47.81 15.38C47.25 15.38 46.75 15.26 46.34 15C45.93 14.73 45.61 14.38 45.37 13.88C45.14 13.38 45.02 12.86 45.02 12.18C45.02 11.54 45.14 10.98 45.37 10.51C45.61 10.04 45.93 9.66 46.34 9.4C46.75 9.14 47.25 9.02 47.81 9.02C48.36 9.02 48.86 9.14 49.24 9.4C49.65 9.66 49.94 10.04 50.18 10.51C50.41 10.98 50.53 11.54 50.53 12.18C50.56 12.83 50.44 13.38 50.21 13.88Z" fill="#1B70F1" fill-opacity="1.000000" fill-rule="nonzero"/>
	<path id="Vector" d="M63.51 6.15L63.51 6.47C63.27 6.76 63.07 7.06 62.89 7.38C62.51 7.99 62.22 8.64 62.01 9.34L61.16 9.34L61.16 18.25L57.53 18.25L57.53 9.34L55.39 9.34L55.39 6.15L57.53 6.15L57.53 3.1L61.16 3.1L61.16 6.15L63.51 6.15Z" fill="#1B70F1" fill-opacity="1.000000" fill-rule="nonzero"/>
	<path id="Vector" d="M71.15 18.45C69.89 18.45 68.78 18.19 67.78 17.63C66.82 17.08 66.03 16.34 65.47 15.41C64.91 14.47 64.62 13.38 64.62 12.18C64.62 10.98 64.91 9.9 65.47 8.96C66.03 8.02 66.82 7.29 67.78 6.73C68.75 6.18 69.89 5.91 71.15 5.91C72.41 5.91 73.53 6.18 74.52 6.73C75.49 7.29 76.28 8.02 76.84 8.96C77.39 9.9 77.69 10.98 77.69 12.18C77.69 13.38 77.39 14.47 76.84 15.41C76.28 16.34 75.52 17.08 74.52 17.63C73.53 18.19 72.41 18.45 71.15 18.45ZM71.15 15.32C71.71 15.32 72.18 15.17 72.62 14.91C73.03 14.64 73.38 14.26 73.61 13.79C73.85 13.33 73.97 12.8 73.97 12.18C74 11.57 73.88 11.04 73.61 10.54C73.38 10.07 73.03 9.69 72.62 9.43C72.21 9.16 71.71 9.02 71.15 9.02C70.6 9.02 70.13 9.16 69.69 9.43C69.25 9.69 68.93 10.07 68.66 10.54C68.43 11.01 68.31 11.57 68.31 12.18C68.28 12.8 68.4 13.33 68.66 13.79C68.9 14.26 69.25 14.64 69.69 14.91C70.13 15.17 70.6 15.32 71.15 15.32Z" fill="#1B70F1" fill-opacity="1.000000" fill-rule="nonzero"/>
	<path id="Vector" d="M91.14 11.54C90.84 10.98 90.43 10.51 89.94 10.13C89.58 9.87 89.2 9.69 88.79 9.55C89.32 9.31 89.76 8.96 90.08 8.52C90.52 7.91 90.76 7.14 90.76 6.24C90.76 5.41 90.58 4.71 90.17 4.13C89.79 3.54 89.2 3.1 88.44 2.78C87.68 2.46 86.77 2.31 85.66 2.31L78.63 2.31L78.63 6.26C78.92 6.62 79.18 7 79.42 7.41C80.27 8.81 80.71 10.42 80.71 12.18C80.71 13.94 80.3 15.55 79.45 16.96C79.21 17.37 78.95 17.75 78.63 18.1L78.63 18.22L85.89 18.22C86.71 18.22 87.5 18.13 88.18 17.92C88.88 17.72 89.47 17.43 90 17.02C90.52 16.61 90.9 16.11 91.17 15.49C91.43 14.91 91.58 14.2 91.58 13.38C91.58 12.71 91.43 12.09 91.14 11.54ZM82.26 5.53L84.96 5.53C85.63 5.53 86.13 5.68 86.45 5.97C86.77 6.26 86.95 6.65 86.95 7.11C86.95 7.44 86.89 7.73 86.74 7.96C86.6 8.2 86.39 8.37 86.1 8.52C85.81 8.64 85.48 8.7 85.07 8.7L82.23 8.7L82.23 5.53L82.26 5.53ZM87.5 14.2C87.33 14.47 87.12 14.67 86.8 14.79C86.51 14.94 86.13 15 85.72 15L82.23 15L82.23 11.57L85.6 11.57C86.04 11.57 86.42 11.63 86.74 11.74C87.07 11.86 87.3 12.07 87.48 12.3C87.65 12.53 87.74 12.83 87.74 13.18C87.77 13.62 87.68 13.94 87.5 14.2Z" fill="#FFFFFF" fill-opacity="1.000000" fill-rule="nonzero"/>
	<path id="Vector" d="M102.71 6.12L101.71 10.13C101.54 10.04 101.33 9.96 101.04 9.87C100.75 9.78 100.48 9.78 100.16 9.78C99.84 9.78 99.51 9.84 99.22 9.96C98.93 10.07 98.69 10.25 98.49 10.45C98.28 10.66 98.14 10.92 98.02 11.22C97.9 11.51 97.84 11.83 97.84 12.18L97.84 18.25L94.18 18.25L94.18 6.15L97.64 6.15L97.73 7.99C97.82 7.85 97.9 7.7 98.02 7.58C98.43 7.06 98.93 6.65 99.49 6.35C100.04 6.06 100.66 5.91 101.27 5.91C101.54 5.91 101.8 5.94 102.03 5.97C102.27 6 102.5 6.06 102.71 6.12Z" fill="#FFFFFF" fill-opacity="1.000000" fill-rule="nonzero"/>
	<path id="Vector" d="M112.2 6.15L112.2 7.61C111.97 7.32 111.73 7.06 111.44 6.85C111.09 6.56 110.65 6.32 110.18 6.15C109.71 5.97 109.18 5.88 108.6 5.88C107.54 5.88 106.6 6.15 105.78 6.67C104.96 7.2 104.32 7.96 103.85 8.9C103.38 9.84 103.15 10.92 103.15 12.15C103.15 13.35 103.38 14.44 103.85 15.38C104.32 16.31 104.96 17.08 105.76 17.6C106.55 18.13 107.45 18.39 108.48 18.39C109.04 18.39 109.53 18.31 110.03 18.16C110.53 17.98 110.97 17.78 111.35 17.49C111.64 17.28 111.91 17.02 112.11 16.78L112.11 18.22L115.8 18.22L115.8 6.15L112.2 6.15ZM111.91 13.88C111.67 14.35 111.35 14.73 110.94 15C110.53 15.26 110.03 15.38 109.48 15.38C108.92 15.38 108.45 15.26 108.07 15C107.66 14.73 107.34 14.38 107.13 13.88C106.9 13.41 106.78 12.86 106.78 12.18C106.78 11.54 106.9 10.98 107.13 10.48C107.37 10.01 107.66 9.63 108.07 9.37C108.45 9.11 108.95 8.99 109.48 8.99C110.03 8.99 110.53 9.11 110.94 9.37C111.35 9.63 111.67 10.01 111.91 10.48C112.14 10.95 112.26 11.54 112.26 12.18C112.26 12.83 112.14 13.38 111.91 13.88Z" fill="#FFFFFF" fill-opacity="1.000000" fill-rule="nonzero"/>
	<path id="Vector" d="M121.05 3.77C120.37 3.77 119.82 3.6 119.44 3.28C119.06 2.95 118.85 2.49 118.85 1.87C118.85 1.31 119.06 0.87 119.44 0.52C119.82 0.17 120.37 0 121.02 0C121.69 0 122.22 0.17 122.6 0.49C122.98 0.82 123.16 1.28 123.16 1.87C123.16 2.43 122.95 2.9 122.57 3.25C122.19 3.6 121.72 3.77 121.05 3.77ZM119.23 18.25L119.23 6.15L122.89 6.15L122.89 18.22L119.23 18.22L119.23 18.25Z" fill="#FFFFFF" fill-opacity="1.000000" fill-rule="nonzero"/>
	<path id="Vector" d="M137.69 10.81L137.69 18.22L134.03 18.22L134.03 11.13C134.03 10.63 133.97 10.25 133.82 9.93C133.68 9.6 133.47 9.37 133.21 9.22C132.92 9.08 132.59 8.99 132.18 9.02C131.86 9.02 131.57 9.08 131.3 9.16C131.04 9.25 130.81 9.4 130.6 9.6C130.39 9.78 130.25 10.01 130.13 10.25C130.02 10.48 129.96 10.75 129.96 11.04L129.96 18.28L126.32 18.28L126.32 6.15L129.78 6.15L129.84 7.64C129.9 7.55 129.99 7.47 130.04 7.38C130.48 6.94 131.01 6.56 131.6 6.29C132.21 6.03 132.83 5.88 133.5 5.88C134.41 5.88 135.17 6.06 135.79 6.44C136.4 6.82 136.87 7.38 137.19 8.11C137.54 8.84 137.69 9.75 137.69 10.81Z" fill="#FFFFFF" fill-opacity="1.000000" fill-rule="nonzero"/>
	<path id="Vector" d="M144.81 18.45C143.64 18.45 142.58 18.28 141.67 17.9C140.77 17.51 140.06 17.02 139.53 16.37L141.73 14.47C142.2 14.94 142.73 15.29 143.31 15.49C143.9 15.73 144.46 15.82 144.98 15.82C145.19 15.82 145.39 15.79 145.54 15.76C145.72 15.7 145.83 15.64 145.95 15.55C146.07 15.46 146.16 15.38 146.21 15.26C146.27 15.14 146.3 15.02 146.3 14.85C146.3 14.56 146.16 14.32 145.89 14.15C145.75 14.06 145.54 13.97 145.22 13.88C144.89 13.76 144.49 13.65 143.99 13.53C143.28 13.35 142.67 13.12 142.14 12.89C141.61 12.62 141.17 12.33 140.85 12.01C140.56 11.68 140.33 11.33 140.15 10.95C139.97 10.57 139.89 10.13 139.89 9.63C139.89 9.08 140.03 8.55 140.3 8.11C140.56 7.64 140.91 7.26 141.35 6.94C141.79 6.62 142.32 6.35 142.9 6.18C143.49 6 144.1 5.91 144.72 5.91C145.39 5.91 146.04 6 146.62 6.15C147.24 6.29 147.8 6.5 148.32 6.79C148.85 7.06 149.32 7.38 149.73 7.76L147.83 9.9C147.56 9.63 147.24 9.4 146.92 9.19C146.57 8.99 146.21 8.81 145.86 8.7C145.51 8.58 145.16 8.52 144.87 8.52C144.63 8.52 144.43 8.55 144.25 8.58C144.08 8.61 143.93 8.67 143.81 8.75C143.69 8.84 143.61 8.93 143.55 9.05C143.49 9.16 143.46 9.28 143.46 9.46C143.46 9.6 143.49 9.75 143.58 9.9C143.67 10.04 143.78 10.16 143.93 10.25C144.08 10.34 144.31 10.45 144.66 10.54C144.98 10.66 145.45 10.81 146.04 10.95C146.74 11.16 147.36 11.36 147.88 11.63C148.41 11.86 148.82 12.15 149.11 12.5C149.35 12.77 149.52 13.06 149.67 13.41C149.79 13.76 149.85 14.12 149.85 14.53C149.85 15.29 149.64 15.99 149.2 16.58C148.76 17.16 148.18 17.66 147.42 17.98C146.65 18.31 145.77 18.45 144.81 18.45Z" fill="#FFFFFF" fill-opacity="1.000000" fill-rule="nonzero"/>
</svg>
