<svg width="58.500000" height="42.750000" viewBox="0 0 58.5 42.75" fill="none" xmlns="http://www.w3.org/2000/svg" xmlns:xlink="http://www.w3.org/1999/xlink">
	<desc>
			Created with Pixso.
	</desc>
	<defs/>
	<path id="Vector (Stroke)" d="M1.31 1.31C2.16 0.47 3.3 0 4.5 0L21.37 0C22.56 0 23.71 0.47 24.55 1.31C25.4 2.16 25.87 3.3 25.87 4.5L25.87 29.25C25.87 32.83 24.45 36.26 21.92 38.79C19.38 41.32 15.95 42.75 12.37 42.75C11.13 42.75 10.12 41.74 10.12 40.5C10.12 39.25 11.13 38.25 12.37 38.25C14.76 38.25 17.05 37.3 18.73 35.61C20.42 33.92 21.37 31.63 21.37 29.25L21.37 27L4.5 27C3.3 27 2.16 26.52 1.31 25.68C0.47 24.83 0 23.69 0 22.5L0 4.5C0 3.3 0.47 2.16 1.31 1.31ZM21.37 22.5L21.37 4.5L4.5 4.5L4.5 22.5L21.37 22.5Z" fill="#FFFFFF" fill-opacity="0.100000" fill-rule="evenodd"/>
	<path id="Vector (Stroke)" d="M33.94 1.31C34.78 0.47 35.93 0 37.12 0L54 0C55.19 0 56.33 0.47 57.18 1.31C58.02 2.16 58.5 3.3 58.5 4.5L58.5 29.25C58.5 32.83 57.07 36.26 54.54 38.79C52.01 41.32 48.58 42.75 45 42.75C43.75 42.75 42.75 41.74 42.75 40.5C42.75 39.25 43.75 38.25 45 38.25C47.38 38.25 49.67 37.3 51.36 35.61C53.05 33.92 54 31.63 54 29.25L54 27L37.12 27C35.93 27 34.78 26.52 33.94 25.68C33.09 24.83 32.62 23.69 32.62 22.5L32.62 4.5C32.62 3.3 33.09 2.16 33.94 1.31ZM54 22.5L54 4.5L37.12 4.5L37.12 22.5L54 22.5Z" fill="#FFFFFF" fill-opacity="0.100000" fill-rule="evenodd"/>
</svg>
